<svg width="33" height="33" viewBox="0 0 33 33" fill="none" xmlns="http://www.w3.org/2000/svg">
<path d="M16.5 2.5L14.475 1.28501C14.1642 1.09852 13.8085 1 13.446 1H8C7.44772 1 7 1.44772 7 2V13C7 13.5523 7.44772 14 8 14H13.6148C13.8693 14 14.1214 14.0486 14.3576 14.143L16.5 15L18.6424 14.143C18.8786 14.0486 19.1307 14 19.3852 14H25C25.5523 14 26 13.5523 26 13V2C26 1.44772 25.5523 1 25 1H19.554C19.1915 1 18.8358 1.09852 18.525 1.28501L16.5 2.5ZM16.5 2.5V6.64706V9.47059V10.5" stroke="#3E4492"/>
<path d="M9 4H13M9 6H13M9 8H13M9 10H13" stroke="#3E4492"/>
<path d="M20 4H24M20 6H24M20 8H24M20 10H24" stroke="#3E4492"/>
<path d="M7 9H3C1.89543 9 1 9.89543 1 11V25C1 26.1046 1.89543 27 3 27H12.5954C12.8647 27 13.1344 27.019 13.3934 27.0927C13.8329 27.2177 14.5426 27.4865 15 28C15.726 28.8151 16.5 31 16.5 31C16.5 31 17.274 28.8151 18 28C18.4574 27.4865 19.1671 27.2177 19.6066 27.0927C19.8656 27.019 20.1353 27 20.4046 27H30C31.1046 27 32 26.1046 32 25V11C32 9.89543 31.1046 9 30 9H26" stroke="#3E4492"/>
<path d="M17.4881 17.256V23H16.6361V20.412H13.6401V23H12.7841V17.256H13.6401V19.792H16.6361V17.256H17.4881ZM19.3426 18.936V23H18.5626V18.936H19.3426ZM19.4906 17.68C19.4906 17.752 19.4759 17.8213 19.4466 17.888C19.4173 17.952 19.3773 18.0093 19.3266 18.06C19.2786 18.108 19.2213 18.1467 19.1546 18.176C19.0879 18.2027 19.0186 18.216 18.9466 18.216C18.8746 18.216 18.8066 18.2027 18.7426 18.176C18.6786 18.1467 18.6213 18.108 18.5706 18.06C18.5226 18.0093 18.4839 17.952 18.4546 17.888C18.4279 17.8213 18.4146 17.752 18.4146 17.68C18.4146 17.6053 18.4279 17.536 18.4546 17.472C18.4839 17.4053 18.5226 17.348 18.5706 17.3C18.6213 17.2493 18.6786 17.2107 18.7426 17.184C18.8066 17.1547 18.8746 17.14 18.9466 17.14C19.0186 17.14 19.0879 17.1547 19.1546 17.184C19.2213 17.2107 19.2786 17.2493 19.3266 17.3C19.3773 17.348 19.4173 17.4053 19.4466 17.472C19.4759 17.536 19.4906 17.6053 19.4906 17.68Z" fill="#376042"/>
</svg>
