<svg width="310" height="119" viewBox="0 0 310 119" fill="none" xmlns="http://www.w3.org/2000/svg">
<path d="M79.5 16.5L77.475 15.285C77.1642 15.0985 76.8085 15 76.446 15H71C70.4477 15 70 15.4477 70 16V27C70 27.5523 70.4477 28 71 28H76.6148C76.8693 28 77.1214 28.0486 77.3576 28.143L79.5 29L81.6424 28.143C81.8786 28.0486 82.1307 28 82.3852 28H88C88.5523 28 89 27.5523 89 27V16C89 15.4477 88.5523 15 88 15H82.554C82.1915 15 81.8358 15.0985 81.525 15.285L79.5 16.5ZM79.5 16.5V20.6471V23.4706V24.5" stroke="#3E4492"/>
<path d="M72 18H76M72 20H76M72 22H76M72 24H76" stroke="#3E4492"/>
<path d="M83 18H87M83 20H87M83 22H87M83 24H87" stroke="#3E4492"/>
<path d="M70 23H66C64.8954 23 64 23.8954 64 25V39C64 40.1046 64.8954 41 66 41H75.5954C75.8647 41 76.1344 41.019 76.3934 41.0927C76.8329 41.2177 77.5426 41.4865 78 42C78.726 42.8151 79.5 45 79.5 45C79.5 45 80.274 42.8151 81 42C81.4574 41.4865 82.1671 41.2177 82.6066 41.0927C82.8656 41.019 83.1353 41 83.4046 41H93C94.1046 41 95 40.1046 95 39V25C95 23.8954 94.1046 23 93 23H89" stroke="#3E4492"/>
<path d="M80.4881 31.256V37H79.6361V34.412H76.6401V37H75.7841V31.256H76.6401V33.792H79.6361V31.256H80.4881ZM82.3426 32.936V37H81.5626V32.936H82.3426ZM82.4906 31.68C82.4906 31.752 82.4759 31.8213 82.4466 31.888C82.4173 31.952 82.3773 32.0093 82.3266 32.06C82.2786 32.108 82.2213 32.1467 82.1546 32.176C82.0879 32.2027 82.0186 32.216 81.9466 32.216C81.8746 32.216 81.8066 32.2027 81.7426 32.176C81.6786 32.1467 81.6213 32.108 81.5706 32.06C81.5226 32.0093 81.4839 31.952 81.4546 31.888C81.4279 31.8213 81.4146 31.752 81.4146 31.68C81.4146 31.6053 81.4279 31.536 81.4546 31.472C81.4839 31.4053 81.5226 31.348 81.5706 31.3C81.6213 31.2493 81.6786 31.2107 81.7426 31.184C81.8066 31.1547 81.8746 31.14 81.9466 31.14C82.0186 31.14 82.0879 31.1547 82.1546 31.184C82.2213 31.2107 82.2786 31.2493 82.3266 31.3C82.3773 31.348 82.4173 31.4053 82.4466 31.472C82.4759 31.536 82.4906 31.6053 82.4906 31.68Z" fill="#376042"/>
<path d="M120.03 21.768C119.923 21.9493 119.811 22.0827 119.694 22.168C119.577 22.2533 119.427 22.296 119.246 22.296C119.054 22.296 118.835 22.2107 118.59 22.04C118.345 21.8587 118.035 21.6613 117.662 21.448C117.299 21.224 116.862 21.0267 116.35 20.856C115.838 20.6747 115.225 20.584 114.51 20.584C113.838 20.584 113.246 20.6747 112.734 20.856C112.233 21.0267 111.811 21.2667 111.47 21.576C111.129 21.8747 110.867 22.232 110.686 22.648C110.515 23.0533 110.43 23.496 110.43 23.976C110.43 24.5947 110.585 25.1067 110.894 25.512C111.214 25.9173 111.63 26.264 112.142 26.552C112.654 26.84 113.235 27.0907 113.886 27.304C114.537 27.5173 115.203 27.7413 115.886 27.976C116.569 28.2 117.235 28.4613 117.886 28.76C118.537 29.0587 119.118 29.4373 119.63 29.896C120.142 30.344 120.553 30.8987 120.862 31.56C121.182 32.2107 121.342 33.0107 121.342 33.96C121.342 34.9733 121.166 35.9227 120.814 36.808C120.473 37.6933 119.971 38.4667 119.31 39.128C118.649 39.7893 117.833 40.312 116.862 40.696C115.902 41.0693 114.809 41.256 113.582 41.256C112.846 41.256 112.131 41.1813 111.438 41.032C110.745 40.8933 110.089 40.696 109.47 40.44C108.851 40.1733 108.27 39.8587 107.726 39.496C107.193 39.1227 106.713 38.7067 106.286 38.248L107.262 36.616C107.358 36.488 107.47 36.3813 107.598 36.296C107.737 36.2107 107.891 36.168 108.062 36.168C108.286 36.168 108.542 36.2853 108.83 36.52C109.129 36.7547 109.491 37.016 109.918 37.304C110.355 37.5813 110.873 37.8373 111.47 38.072C112.078 38.3067 112.814 38.424 113.678 38.424C114.382 38.424 115.011 38.3333 115.566 38.152C116.121 37.96 116.585 37.6933 116.958 37.352C117.342 37 117.635 36.5787 117.838 36.088C118.041 35.5973 118.142 35.0533 118.142 34.456C118.142 33.784 117.987 33.2347 117.678 32.808C117.369 32.3813 116.958 32.024 116.446 31.736C115.934 31.448 115.353 31.2027 114.702 31C114.051 30.7973 113.385 30.5893 112.702 30.376C112.019 30.152 111.353 29.896 110.702 29.608C110.051 29.32 109.47 28.9467 108.958 28.488C108.446 28.0187 108.035 27.4373 107.726 26.744C107.417 26.04 107.262 25.176 107.262 24.152C107.262 23.3307 107.422 22.536 107.742 21.768C108.062 21 108.526 20.3227 109.134 19.736C109.753 19.1387 110.51 18.664 111.406 18.312C112.302 17.9493 113.326 17.768 114.478 17.768C115.769 17.768 116.953 17.976 118.03 18.392C119.118 18.7973 120.062 19.384 120.862 20.152L120.03 21.768ZM131.102 24.488C132.297 24.488 133.374 24.6853 134.334 25.08C135.305 25.464 136.126 26.024 136.798 26.76C137.481 27.4853 138.004 28.3653 138.366 29.4C138.729 30.424 138.91 31.576 138.91 32.856C138.91 34.136 138.729 35.2933 138.366 36.328C138.004 37.3627 137.481 38.2427 136.798 38.968C136.126 39.6933 135.305 40.2533 134.334 40.648C133.374 41.032 132.297 41.224 131.102 41.224C129.897 41.224 128.809 41.032 127.838 40.648C126.878 40.2533 126.057 39.6933 125.374 38.968C124.692 38.2427 124.164 37.3627 123.79 36.328C123.428 35.2933 123.246 34.136 123.246 32.856C123.246 31.576 123.428 30.424 123.79 29.4C124.164 28.3653 124.692 27.4853 125.374 26.76C126.057 26.024 126.878 25.464 127.838 25.08C128.809 24.6853 129.897 24.488 131.102 24.488ZM131.102 38.792C132.638 38.792 133.785 38.2747 134.542 37.24C135.3 36.2053 135.678 34.7493 135.678 32.872C135.678 30.9947 135.3 29.5387 134.542 28.504C133.785 27.4587 132.638 26.936 131.102 26.936C129.545 26.936 128.382 27.4587 127.614 28.504C126.857 29.5387 126.478 30.9947 126.478 32.872C126.478 34.7493 126.857 36.2053 127.614 37.24C128.382 38.2747 129.545 38.792 131.102 38.792ZM153.145 27.784C153.049 27.9013 152.953 27.9973 152.857 28.072C152.772 28.136 152.644 28.168 152.473 28.168C152.303 28.168 152.121 28.104 151.929 27.976C151.748 27.8373 151.513 27.6933 151.225 27.544C150.948 27.384 150.607 27.24 150.201 27.112C149.807 26.9733 149.316 26.904 148.729 26.904C147.961 26.904 147.284 27.0427 146.697 27.32C146.111 27.5973 145.62 27.992 145.225 28.504C144.841 29.016 144.548 29.64 144.345 30.376C144.143 31.112 144.041 31.9387 144.041 32.856C144.041 33.8053 144.148 34.6533 144.361 35.4C144.575 36.136 144.879 36.76 145.273 37.272C145.668 37.7733 146.148 38.1573 146.713 38.424C147.279 38.68 147.908 38.808 148.601 38.808C149.273 38.808 149.828 38.728 150.265 38.568C150.703 38.3973 151.065 38.216 151.353 38.024C151.641 37.832 151.881 37.656 152.073 37.496C152.265 37.3253 152.463 37.24 152.665 37.24C152.921 37.24 153.119 37.336 153.257 37.528L154.153 38.68C153.78 39.1387 153.359 39.528 152.889 39.848C152.431 40.168 151.94 40.4293 151.417 40.632C150.895 40.8347 150.345 40.984 149.769 41.08C149.204 41.176 148.628 41.224 148.041 41.224C147.028 41.224 146.079 41.0373 145.193 40.664C144.319 40.2907 143.556 39.7467 142.905 39.032C142.265 38.3173 141.759 37.4427 141.385 36.408C141.012 35.3627 140.825 34.1787 140.825 32.856C140.825 31.6507 140.991 30.536 141.321 29.512C141.663 28.488 142.159 27.608 142.809 26.872C143.471 26.1253 144.281 25.544 145.241 25.128C146.201 24.7013 147.3 24.488 148.537 24.488C149.7 24.488 150.724 24.6747 151.609 25.048C152.495 25.4213 153.284 25.9493 153.977 26.632L153.145 27.784ZM159.37 27.864C159.892 26.7973 160.522 25.96 161.258 25.352C161.994 24.744 162.879 24.44 163.914 24.44C164.266 24.44 164.596 24.4827 164.906 24.568C165.226 24.6427 165.503 24.76 165.738 24.92L165.53 27.272C165.455 27.56 165.279 27.704 165.002 27.704C164.852 27.704 164.628 27.6773 164.33 27.624C164.031 27.56 163.711 27.528 163.37 27.528C162.868 27.528 162.426 27.6027 162.042 27.752C161.658 27.8907 161.311 28.104 161.002 28.392C160.703 28.6693 160.436 29.016 160.202 29.432C159.967 29.8373 159.748 30.3013 159.546 30.824V41H156.426V24.744H158.218C158.559 24.744 158.788 24.808 158.906 24.936C159.034 25.0533 159.124 25.2667 159.178 25.576L159.37 27.864ZM175.99 33.784C174.721 33.8267 173.644 33.928 172.758 34.088C171.873 34.2373 171.153 34.44 170.598 34.696C170.044 34.952 169.644 35.256 169.398 35.608C169.153 35.9493 169.03 36.3333 169.03 36.76C169.03 37.1653 169.094 37.5173 169.222 37.816C169.361 38.104 169.542 38.344 169.766 38.536C170.001 38.7173 170.273 38.8507 170.582 38.936C170.892 39.0213 171.228 39.064 171.59 39.064C172.07 39.064 172.508 39.016 172.902 38.92C173.308 38.824 173.686 38.6907 174.038 38.52C174.39 38.3387 174.726 38.12 175.046 37.864C175.366 37.608 175.681 37.3147 175.99 36.984V33.784ZM166.838 27.016C167.745 26.152 168.726 25.5067 169.782 25.08C170.849 24.6533 172.017 24.44 173.286 24.44C174.214 24.44 175.036 24.5947 175.75 24.904C176.465 25.2027 177.068 25.624 177.558 26.168C178.049 26.712 178.417 27.3627 178.662 28.12C178.918 28.8773 179.046 29.7147 179.046 30.632V41H177.654C177.345 41 177.11 40.952 176.95 40.856C176.79 40.7493 176.662 40.5573 176.566 40.28L176.23 38.856C175.814 39.24 175.404 39.5813 174.998 39.88C174.593 40.168 174.166 40.4187 173.718 40.632C173.281 40.8347 172.812 40.9893 172.31 41.096C171.809 41.2027 171.254 41.256 170.646 41.256C170.006 41.256 169.404 41.1707 168.838 41C168.284 40.8187 167.798 40.5467 167.382 40.184C166.966 39.8213 166.636 39.368 166.39 38.824C166.156 38.28 166.038 37.6453 166.038 36.92C166.038 36.28 166.209 35.6667 166.55 35.08C166.902 34.4827 167.468 33.9493 168.246 33.48C169.036 33.0107 170.06 32.6267 171.318 32.328C172.588 32.0293 174.145 31.8587 175.99 31.816V30.632C175.99 29.4053 175.729 28.488 175.206 27.88C174.684 27.272 173.916 26.968 172.902 26.968C172.22 26.968 171.644 27.0533 171.174 27.224C170.716 27.3947 170.316 27.5867 169.974 27.8C169.644 28.0027 169.35 28.1893 169.094 28.36C168.849 28.5307 168.593 28.616 168.326 28.616C168.113 28.616 167.926 28.5573 167.766 28.44C167.617 28.3227 167.494 28.184 167.398 28.024L166.838 27.016ZM198.928 36.072C199.12 36.072 199.285 36.1467 199.424 36.296L200.768 37.768C199.829 38.8773 198.682 39.736 197.328 40.344C195.984 40.952 194.362 41.256 192.464 41.256C190.8 41.256 189.29 40.968 187.936 40.392C186.592 39.816 185.44 39.0107 184.48 37.976C183.53 36.9413 182.794 35.704 182.272 34.264C181.749 32.824 181.488 31.24 181.488 29.512C181.488 27.784 181.76 26.2 182.304 24.76C182.858 23.32 183.632 22.0827 184.624 21.048C185.616 20.0133 186.8 19.208 188.176 18.632C189.562 18.056 191.093 17.768 192.768 17.768C194.4 17.768 195.85 18.0347 197.12 18.568C198.389 19.1013 199.493 19.8107 200.432 20.696L199.312 22.28C199.237 22.3973 199.141 22.4933 199.024 22.568C198.917 22.6427 198.773 22.68 198.592 22.68C198.389 22.68 198.149 22.5787 197.872 22.376C197.605 22.1733 197.248 21.9493 196.8 21.704C196.362 21.448 195.818 21.2187 195.168 21.016C194.517 20.8133 193.706 20.712 192.736 20.712C191.594 20.712 190.549 20.9147 189.6 21.32C188.65 21.7147 187.829 22.2907 187.136 23.048C186.453 23.7947 185.92 24.7173 185.536 25.816C185.162 26.904 184.976 28.136 184.976 29.512C184.976 30.9093 185.173 32.152 185.568 33.24C185.962 34.328 186.506 35.2507 187.2 36.008C187.893 36.7653 188.709 37.3413 189.648 37.736C190.586 38.1307 191.6 38.328 192.688 38.328C193.349 38.328 193.941 38.2907 194.464 38.216C194.997 38.1307 195.482 38.008 195.92 37.848C196.368 37.688 196.789 37.4853 197.184 37.24C197.578 36.984 197.968 36.68 198.352 36.328C198.437 36.2533 198.528 36.1947 198.624 36.152C198.72 36.0987 198.821 36.072 198.928 36.072ZM206.032 26.808C206.715 26.1147 207.467 25.5547 208.288 25.128C209.12 24.7013 210.075 24.488 211.152 24.488C212.048 24.488 212.832 24.6373 213.504 24.936C214.187 25.2347 214.757 25.656 215.216 26.2C215.675 26.7333 216.021 27.3787 216.256 28.136C216.491 28.8933 216.608 29.7307 216.608 30.648V41H213.472V30.648C213.472 29.4853 213.205 28.584 212.672 27.944C212.139 27.2933 211.323 26.968 210.224 26.968C209.424 26.968 208.672 27.16 207.968 27.544C207.275 27.9173 206.629 28.4293 206.032 29.08V41H202.912V17.384H206.032V26.808ZM228.914 33.784C227.645 33.8267 226.568 33.928 225.682 34.088C224.797 34.2373 224.077 34.44 223.522 34.696C222.968 34.952 222.568 35.256 222.322 35.608C222.077 35.9493 221.954 36.3333 221.954 36.76C221.954 37.1653 222.018 37.5173 222.146 37.816C222.285 38.104 222.466 38.344 222.69 38.536C222.925 38.7173 223.197 38.8507 223.506 38.936C223.816 39.0213 224.152 39.064 224.514 39.064C224.994 39.064 225.432 39.016 225.826 38.92C226.232 38.824 226.61 38.6907 226.962 38.52C227.314 38.3387 227.65 38.12 227.97 37.864C228.29 37.608 228.605 37.3147 228.914 36.984V33.784ZM219.762 27.016C220.669 26.152 221.65 25.5067 222.706 25.08C223.773 24.6533 224.941 24.44 226.21 24.44C227.138 24.44 227.96 24.5947 228.674 24.904C229.389 25.2027 229.992 25.624 230.482 26.168C230.973 26.712 231.341 27.3627 231.586 28.12C231.842 28.8773 231.97 29.7147 231.97 30.632V41H230.578C230.269 41 230.034 40.952 229.874 40.856C229.714 40.7493 229.586 40.5573 229.49 40.28L229.154 38.856C228.738 39.24 228.328 39.5813 227.922 39.88C227.517 40.168 227.09 40.4187 226.642 40.632C226.205 40.8347 225.736 40.9893 225.234 41.096C224.733 41.2027 224.178 41.256 223.57 41.256C222.93 41.256 222.328 41.1707 221.762 41C221.208 40.8187 220.722 40.5467 220.306 40.184C219.89 39.8213 219.56 39.368 219.314 38.824C219.08 38.28 218.962 37.6453 218.962 36.92C218.962 36.28 219.133 35.6667 219.474 35.08C219.826 34.4827 220.392 33.9493 221.17 33.48C221.96 33.0107 222.984 32.6267 224.242 32.328C225.512 32.0293 227.069 31.8587 228.914 31.816V30.632C228.914 29.4053 228.653 28.488 228.13 27.88C227.608 27.272 226.84 26.968 225.826 26.968C225.144 26.968 224.568 27.0533 224.098 27.224C223.64 27.3947 223.24 27.5867 222.898 27.8C222.568 28.0027 222.274 28.1893 222.018 28.36C221.773 28.5307 221.517 28.616 221.25 28.616C221.037 28.616 220.85 28.5573 220.69 28.44C220.541 28.3227 220.418 28.184 220.322 28.024L219.762 27.016ZM240.376 41.256C239.064 41.256 238.051 40.888 237.336 40.152C236.632 39.416 236.28 38.3653 236.28 37V27.272H234.392C234.211 27.272 234.056 27.2187 233.928 27.112C233.811 26.9947 233.752 26.824 233.752 26.6V25.336L236.392 24.968L237.096 20.12C237.139 19.9387 237.219 19.8 237.336 19.704C237.464 19.5973 237.624 19.544 237.816 19.544H239.4V25H244.008V27.272H239.4V36.792C239.4 37.432 239.555 37.912 239.864 38.232C240.184 38.5413 240.59 38.696 241.08 38.696C241.368 38.696 241.614 38.6587 241.816 38.584C242.03 38.5093 242.211 38.4293 242.36 38.344C242.51 38.248 242.638 38.1627 242.744 38.088C242.851 38.0133 242.947 37.976 243.032 37.976C243.139 37.976 243.219 38.0027 243.272 38.056C243.336 38.0987 243.4 38.1733 243.464 38.28L244.392 39.784C243.88 40.2533 243.272 40.616 242.568 40.872C241.864 41.128 241.134 41.256 240.376 41.256Z" fill="#3E4492"/>
<path d="M53.9 80.46C53.96 80.46 54.0117 80.4833 54.055 80.53L54.475 80.99C54.1817 81.3367 53.8233 81.605 53.4 81.795C52.98 81.985 52.4733 82.08 51.88 82.08C51.36 82.08 50.8883 81.99 50.465 81.81C50.045 81.63 49.685 81.3783 49.385 81.055C49.0883 80.7317 48.8583 80.345 48.695 79.895C48.5317 79.445 48.45 78.95 48.45 78.41C48.45 77.87 48.535 77.375 48.705 76.925C48.8783 76.475 49.12 76.0883 49.43 75.765C49.74 75.4417 50.11 75.19 50.54 75.01C50.9733 74.83 51.4517 74.74 51.975 74.74C52.485 74.74 52.9383 74.8233 53.335 74.99C53.7317 75.1567 54.0767 75.3783 54.37 75.655L54.02 76.15C53.9967 76.1867 53.9667 76.2167 53.93 76.24C53.8967 76.2633 53.8517 76.275 53.795 76.275C53.7317 76.275 53.6567 76.2433 53.57 76.18C53.4867 76.1167 53.375 76.0467 53.235 75.97C53.0983 75.89 52.9283 75.8183 52.725 75.755C52.5217 75.6917 52.2683 75.66 51.965 75.66C51.6083 75.66 51.2817 75.7233 50.985 75.85C50.6883 75.9733 50.4317 76.1533 50.215 76.39C50.0017 76.6233 49.835 76.9117 49.715 77.255C49.5983 77.595 49.54 77.98 49.54 78.41C49.54 78.8467 49.6017 79.235 49.725 79.575C49.8483 79.915 50.0183 80.2033 50.235 80.44C50.4517 80.6767 50.7067 80.8567 51 80.98C51.2933 81.1033 51.61 81.165 51.95 81.165C52.1567 81.165 52.3417 81.1533 52.505 81.13C52.6717 81.1033 52.8233 81.065 52.96 81.015C53.1 80.965 53.2317 80.9017 53.355 80.825C53.4783 80.745 53.6 80.65 53.72 80.54C53.7467 80.5167 53.775 80.4983 53.805 80.485C53.835 80.4683 53.8667 80.46 53.9 80.46ZM57.2125 76.84C57.5858 76.84 57.9225 76.9017 58.2225 77.025C58.5258 77.145 58.7825 77.32 58.9925 77.55C59.2058 77.7767 59.3692 78.0517 59.4825 78.375C59.5958 78.695 59.6525 79.055 59.6525 79.455C59.6525 79.855 59.5958 80.2167 59.4825 80.54C59.3692 80.8633 59.2058 81.1383 58.9925 81.365C58.7825 81.5917 58.5258 81.7667 58.2225 81.89C57.9225 82.01 57.5858 82.07 57.2125 82.07C56.8358 82.07 56.4958 82.01 56.1925 81.89C55.8925 81.7667 55.6358 81.5917 55.4225 81.365C55.2092 81.1383 55.0442 80.8633 54.9275 80.54C54.8142 80.2167 54.7575 79.855 54.7575 79.455C54.7575 79.055 54.8142 78.695 54.9275 78.375C55.0442 78.0517 55.2092 77.7767 55.4225 77.55C55.6358 77.32 55.8925 77.145 56.1925 77.025C56.4958 76.9017 56.8358 76.84 57.2125 76.84ZM57.2125 81.31C57.6925 81.31 58.0508 81.1483 58.2875 80.825C58.5242 80.5017 58.6425 80.0467 58.6425 79.46C58.6425 78.8733 58.5242 78.4183 58.2875 78.095C58.0508 77.7683 57.6925 77.605 57.2125 77.605C56.7258 77.605 56.3625 77.7683 56.1225 78.095C55.8858 78.4183 55.7675 78.8733 55.7675 79.46C55.7675 80.0467 55.8858 80.5017 56.1225 80.825C56.3625 81.1483 56.7258 81.31 57.2125 81.31ZM61.5159 80.75C61.6759 80.96 61.8475 81.1067 62.0309 81.19C62.2175 81.2733 62.4259 81.315 62.6559 81.315C63.1025 81.315 63.4475 81.155 63.6909 80.835C63.9375 80.5117 64.0609 80.0417 64.0609 79.425C64.0609 79.1017 64.0325 78.8267 63.9759 78.6C63.9225 78.37 63.8425 78.1833 63.7359 78.04C63.6325 77.8933 63.5042 77.7867 63.3509 77.72C63.1975 77.65 63.0242 77.615 62.8309 77.615C62.5475 77.615 62.3009 77.6783 62.0909 77.805C61.8842 77.9317 61.6925 78.1117 61.5159 78.345V80.75ZM61.4659 77.68C61.5725 77.5533 61.6859 77.4383 61.8059 77.335C61.9292 77.2283 62.0609 77.1383 62.2009 77.065C62.3409 76.9883 62.4892 76.93 62.6459 76.89C62.8059 76.8467 62.9759 76.825 63.1559 76.825C63.4459 76.825 63.7075 76.8817 63.9409 76.995C64.1775 77.1083 64.3792 77.275 64.5459 77.495C64.7125 77.715 64.8409 77.9867 64.9309 78.31C65.0242 78.6333 65.0709 79.005 65.0709 79.425C65.0709 79.8017 65.0192 80.1517 64.9159 80.475C64.8159 80.795 64.6709 81.0733 64.4809 81.31C64.2942 81.5467 64.0642 81.7333 63.7909 81.87C63.5209 82.0033 63.2159 82.07 62.8759 82.07C62.5725 82.07 62.3125 82.02 62.0959 81.92C61.8792 81.82 61.6859 81.68 61.5159 81.5V83.705H60.5409V76.92H61.1259C61.2625 76.92 61.3475 76.985 61.3809 77.115L61.4659 77.68ZM70.2691 76.92L67.4491 83.475C67.4191 83.5483 67.3791 83.605 67.3291 83.645C67.2791 83.685 67.2058 83.705 67.1091 83.705H66.3841L67.3141 81.68L65.2291 76.92H66.0791C66.1625 76.92 66.2275 76.94 66.2741 76.98C66.3208 77.02 66.3541 77.065 66.3741 77.115L67.6641 80.165C67.6908 80.2417 67.7158 80.32 67.7391 80.4C67.7658 80.4767 67.7875 80.5533 67.8041 80.63C67.8275 80.55 67.8525 80.4717 67.8791 80.395C67.9058 80.315 67.9341 80.2367 67.9641 80.16L69.2091 77.115C69.2325 77.0583 69.2691 77.0117 69.3191 76.975C69.3691 76.9383 69.4258 76.92 69.4891 76.92H70.2691ZM71.7347 77.895C71.898 77.5617 72.0947 77.3 72.3247 77.11C72.5547 76.92 72.8314 76.825 73.1547 76.825C73.2647 76.825 73.368 76.8383 73.4647 76.865C73.5647 76.8883 73.6514 76.925 73.7247 76.975L73.6597 77.71C73.6364 77.8 73.5814 77.845 73.4947 77.845C73.448 77.845 73.378 77.8367 73.2847 77.82C73.1914 77.8 73.0914 77.79 72.9847 77.79C72.828 77.79 72.6897 77.8133 72.5697 77.86C72.4497 77.9033 72.3414 77.97 72.2447 78.06C72.1514 78.1467 72.068 78.255 71.9947 78.385C71.9214 78.5117 71.853 78.6567 71.7897 78.82V82H70.8147V76.92H71.3747C71.4814 76.92 71.553 76.94 71.5897 76.98C71.6297 77.0167 71.658 77.0833 71.6747 77.18L71.7347 77.895ZM75.2968 76.92V82H74.3218V76.92H75.2968ZM75.4818 75.35C75.4818 75.44 75.4635 75.5267 75.4268 75.61C75.3901 75.69 75.3401 75.7617 75.2768 75.825C75.2168 75.885 75.1451 75.9333 75.0618 75.97C74.9785 76.0033 74.8918 76.02 74.8018 76.02C74.7118 76.02 74.6268 76.0033 74.5468 75.97C74.4668 75.9333 74.3951 75.885 74.3318 75.825C74.2718 75.7617 74.2235 75.69 74.1868 75.61C74.1535 75.5267 74.1368 75.44 74.1368 75.35C74.1368 75.2567 74.1535 75.17 74.1868 75.09C74.2235 75.0067 74.2718 74.935 74.3318 74.875C74.3951 74.8117 74.4668 74.7633 74.5468 74.73C74.6268 74.6933 74.7118 74.675 74.8018 74.675C74.8918 74.675 74.9785 74.6933 75.0618 74.73C75.1451 74.7633 75.2168 74.8117 75.2768 74.875C75.3401 74.935 75.3901 75.0067 75.4268 75.09C75.4635 75.17 75.4818 75.2567 75.4818 75.35ZM78.2934 79.465C78.4668 79.465 78.6184 79.4417 78.7484 79.395C78.8818 79.3483 78.9918 79.2833 79.0784 79.2C79.1684 79.1133 79.2351 79.01 79.2784 78.89C79.3251 78.77 79.3484 78.6383 79.3484 78.495C79.3484 78.2017 79.2584 77.9683 79.0784 77.795C78.9018 77.6183 78.6401 77.53 78.2934 77.53C77.9501 77.53 77.6884 77.6183 77.5084 77.795C77.3318 77.9683 77.2434 78.2017 77.2434 78.495C77.2434 78.6383 77.2651 78.77 77.3084 78.89C77.3551 79.0067 77.4218 79.1083 77.5084 79.195C77.5984 79.2783 77.7084 79.345 77.8384 79.395C77.9718 79.4417 78.1234 79.465 78.2934 79.465ZM79.8484 82.265C79.8484 82.145 79.8151 82.05 79.7484 81.98C79.6818 81.9067 79.5901 81.85 79.4734 81.81C79.3601 81.7667 79.2268 81.7367 79.0734 81.72C78.9201 81.7 78.7584 81.685 78.5884 81.675C78.4218 81.665 78.2501 81.6567 78.0734 81.65C77.8968 81.64 77.7268 81.6233 77.5634 81.6C77.3901 81.6867 77.2468 81.7917 77.1334 81.915C77.0234 82.0383 76.9684 82.1833 76.9684 82.35C76.9684 82.4567 76.9951 82.5567 77.0484 82.65C77.1051 82.7433 77.1901 82.8233 77.3034 82.89C77.4201 82.96 77.5651 83.0133 77.7384 83.05C77.9151 83.09 78.1251 83.11 78.3684 83.11C78.6084 83.11 78.8201 83.0883 79.0034 83.045C79.1868 83.005 79.3401 82.9467 79.4634 82.87C79.5901 82.7967 79.6851 82.7083 79.7484 82.605C79.8151 82.5017 79.8484 82.3883 79.8484 82.265ZM80.8384 77.11V77.475C80.8384 77.595 80.7634 77.67 80.6134 77.7L80.0684 77.78C80.1151 77.8833 80.1518 77.9933 80.1784 78.11C80.2051 78.2233 80.2184 78.3433 80.2184 78.47C80.2184 78.72 80.1701 78.9467 80.0734 79.15C79.9768 79.35 79.8434 79.5217 79.6734 79.665C79.5034 79.8083 79.3001 79.9183 79.0634 79.995C78.8301 80.0717 78.5734 80.11 78.2934 80.11C78.0634 80.11 77.8484 80.085 77.6484 80.035C77.5484 80.095 77.4718 80.1617 77.4184 80.235C77.3684 80.305 77.3434 80.375 77.3434 80.445C77.3434 80.5617 77.3918 80.6483 77.4884 80.705C77.5884 80.7617 77.7168 80.8033 77.8734 80.83C78.0334 80.8533 78.2151 80.8683 78.4184 80.875C78.6251 80.8817 78.8334 80.8933 79.0434 80.91C79.2568 80.9233 79.4651 80.95 79.6684 80.99C79.8751 81.0267 80.0568 81.0883 80.2134 81.175C80.3734 81.2583 80.5018 81.375 80.5984 81.525C80.6984 81.6717 80.7484 81.8633 80.7484 82.1C80.7484 82.32 80.6934 82.5333 80.5834 82.74C80.4768 82.9467 80.3201 83.13 80.1134 83.29C79.9068 83.45 79.6551 83.5783 79.3584 83.675C79.0618 83.7717 78.7251 83.82 78.3484 83.82C77.9718 83.82 77.6434 83.7833 77.3634 83.71C77.0868 83.6367 76.8551 83.5383 76.6684 83.415C76.4851 83.2917 76.3468 83.1483 76.2534 82.985C76.1634 82.8217 76.1184 82.6517 76.1184 82.475C76.1184 82.2283 76.1951 82.02 76.3484 81.85C76.5018 81.6767 76.7134 81.5417 76.9834 81.445C76.8368 81.3783 76.7201 81.2883 76.6334 81.175C76.5468 81.0583 76.5034 80.905 76.5034 80.715C76.5034 80.6417 76.5168 80.5667 76.5434 80.49C76.5701 80.41 76.6101 80.3317 76.6634 80.255C76.7201 80.175 76.7884 80.1 76.8684 80.03C76.9518 79.96 77.0468 79.8967 77.1534 79.84C76.9034 79.7 76.7068 79.515 76.5634 79.285C76.4201 79.0517 76.3484 78.78 76.3484 78.47C76.3484 78.22 76.3968 77.995 76.4934 77.795C76.5901 77.595 76.7234 77.4233 76.8934 77.28C77.0668 77.1367 77.2718 77.0267 77.5084 76.95C77.7484 76.8733 78.0101 76.835 78.2934 76.835C78.7334 76.835 79.1118 76.9267 79.4284 77.11H80.8384ZM82.508 77.565C82.7214 77.3483 82.9564 77.1733 83.213 77.04C83.473 76.9067 83.7714 76.84 84.108 76.84C84.388 76.84 84.633 76.8867 84.843 76.98C85.0564 77.0733 85.2347 77.205 85.378 77.375C85.5214 77.5417 85.6297 77.7433 85.703 77.98C85.7764 78.2167 85.813 78.4783 85.813 78.765V82H84.833V78.765C84.833 78.4017 84.7497 78.12 84.583 77.92C84.4164 77.7167 84.1614 77.615 83.818 77.615C83.568 77.615 83.333 77.675 83.113 77.795C82.8964 77.9117 82.6947 78.0717 82.508 78.275V82H81.533V74.62H82.508V77.565ZM88.4504 82.08C88.0404 82.08 87.7237 81.965 87.5004 81.735C87.2804 81.505 87.1704 81.1767 87.1704 80.75V77.71H86.5804C86.5237 77.71 86.4754 77.6933 86.4354 77.66C86.3987 77.6233 86.3804 77.57 86.3804 77.5V77.105L87.2054 76.99L87.4254 75.475C87.4387 75.4183 87.4637 75.375 87.5004 75.345C87.5404 75.3117 87.5904 75.295 87.6504 75.295H88.1454V77H89.5854V77.71H88.1454V80.685C88.1454 80.885 88.1937 81.035 88.2904 81.135C88.3904 81.2317 88.5171 81.28 88.6704 81.28C88.7604 81.28 88.8371 81.2683 88.9004 81.245C88.9671 81.2217 89.0237 81.1967 89.0704 81.17C89.1171 81.14 89.1571 81.1133 89.1904 81.09C89.2237 81.0667 89.2537 81.055 89.2804 81.055C89.3137 81.055 89.3387 81.0633 89.3554 81.08C89.3754 81.0933 89.3954 81.1167 89.4154 81.15L89.7054 81.62C89.5454 81.7667 89.3554 81.88 89.1354 81.96C88.9154 82.04 88.6871 82.08 88.4504 82.08ZM97.3177 79.58C97.3444 79.5767 97.3694 79.5817 97.3927 79.595C97.4194 79.6083 97.4411 79.6233 97.4577 79.64L97.7877 79.995C97.5977 80.2183 97.3644 80.3917 97.0877 80.515C96.8111 80.635 96.4794 80.695 96.0927 80.695C95.7627 80.695 95.4627 80.6383 95.1927 80.525C94.9261 80.4083 94.6977 80.2483 94.5077 80.045C94.3177 79.8383 94.1694 79.595 94.0627 79.315C93.9594 79.035 93.9077 78.7283 93.9077 78.395C93.9077 78.0583 93.9644 77.75 94.0777 77.47C94.1944 77.1867 94.3544 76.945 94.5577 76.745C94.7611 76.5417 95.0011 76.3833 95.2777 76.27C95.5577 76.1567 95.8611 76.1 96.1877 76.1C96.5511 76.1 96.8611 76.1583 97.1177 76.275C97.3744 76.3917 97.5961 76.5433 97.7827 76.73L97.5277 77.09C97.5111 77.11 97.4877 77.1317 97.4577 77.155C97.4311 77.175 97.3961 77.185 97.3527 77.185C97.3027 77.185 97.2511 77.1667 97.1977 77.13C97.1477 77.0933 97.0827 77.0533 97.0027 77.01C96.9227 76.9667 96.8227 76.9267 96.7027 76.89C96.5827 76.8533 96.4277 76.835 96.2377 76.835C96.0111 76.835 95.8077 76.8717 95.6277 76.945C95.4477 77.0183 95.2944 77.1233 95.1677 77.26C95.0411 77.3933 94.9444 77.5567 94.8777 77.75C94.8111 77.94 94.7777 78.155 94.7777 78.395C94.7777 78.645 94.8111 78.8667 94.8777 79.06C94.9477 79.2533 95.0427 79.4167 95.1627 79.55C95.2861 79.6833 95.4311 79.785 95.5977 79.855C95.7644 79.9217 95.9461 79.955 96.1427 79.955C96.3127 79.955 96.4544 79.9417 96.5677 79.915C96.6811 79.8883 96.7794 79.8567 96.8627 79.82C96.9494 79.78 97.0261 79.7383 97.0927 79.695C97.1627 79.6517 97.2377 79.6133 97.3177 79.58ZM92.4127 78.41C92.4127 78.0733 92.4561 77.7483 92.5427 77.435C92.6294 77.1217 92.7527 76.83 92.9127 76.56C93.0727 76.29 93.2644 76.0433 93.4877 75.82C93.7111 75.5967 93.9577 75.405 94.2277 75.245C94.4977 75.085 94.7877 74.9617 95.0977 74.875C95.4111 74.7883 95.7361 74.745 96.0727 74.745C96.5794 74.745 97.0544 74.8417 97.4977 75.035C97.9444 75.225 98.3327 75.4867 98.6627 75.82C98.9961 76.15 99.2577 76.5383 99.4477 76.985C99.6411 77.4283 99.7377 77.9033 99.7377 78.41C99.7377 78.9167 99.6411 79.3917 99.4477 79.835C99.2577 80.2783 98.9961 80.6667 98.6627 81C98.3327 81.33 97.9444 81.5917 97.4977 81.785C97.0544 81.975 96.5794 82.07 96.0727 82.07C95.7361 82.07 95.4111 82.0267 95.0977 81.94C94.7877 81.8533 94.4977 81.73 94.2277 81.57C93.9577 81.41 93.7111 81.22 93.4877 81C93.2644 80.7767 93.0727 80.53 92.9127 80.26C92.7527 79.9867 92.6294 79.695 92.5427 79.385C92.4561 79.0717 92.4127 78.7467 92.4127 78.41ZM92.9577 78.41C92.9577 78.7033 92.9944 78.9867 93.0677 79.26C93.1411 79.53 93.2444 79.7833 93.3777 80.02C93.5111 80.2533 93.6727 80.4667 93.8627 80.66C94.0527 80.85 94.2627 81.0133 94.4927 81.15C94.7227 81.2867 94.9711 81.3933 95.2377 81.47C95.5044 81.5433 95.7827 81.58 96.0727 81.58C96.3627 81.58 96.6411 81.5433 96.9077 81.47C97.1777 81.3933 97.4294 81.2867 97.6627 81.15C97.8961 81.0133 98.1077 80.85 98.2977 80.66C98.4877 80.4667 98.6494 80.2533 98.7827 80.02C98.9194 79.7833 99.0244 79.53 99.0977 79.26C99.1711 78.99 99.2077 78.7067 99.2077 78.41C99.2077 78.1133 99.1711 77.8283 99.0977 77.555C99.0244 77.2817 98.9194 77.0267 98.7827 76.79C98.6494 76.5533 98.4877 76.3383 98.2977 76.145C98.1077 75.9517 97.8961 75.7867 97.6627 75.65C97.4294 75.51 97.1777 75.4033 96.9077 75.33C96.6411 75.2533 96.3627 75.215 96.0727 75.215C95.7827 75.215 95.5044 75.2533 95.2377 75.33C94.9711 75.4033 94.7227 75.51 94.4927 75.65C94.2627 75.7867 94.0527 75.9517 93.8627 76.145C93.6727 76.3383 93.5111 76.5533 93.3777 76.79C93.2444 77.0267 93.1411 77.2817 93.0677 77.555C92.9944 77.8283 92.9577 78.1133 92.9577 78.41ZM106.958 75.99C106.924 76.0467 106.889 76.0883 106.853 76.115C106.816 76.1417 106.769 76.155 106.713 76.155C106.653 76.155 106.584 76.1283 106.508 76.075C106.431 76.0183 106.334 75.9567 106.218 75.89C106.104 75.82 105.968 75.7583 105.808 75.705C105.648 75.6483 105.456 75.62 105.233 75.62C105.023 75.62 104.838 75.6483 104.678 75.705C104.521 75.7583 104.389 75.8333 104.283 75.93C104.176 76.0233 104.094 76.135 104.038 76.265C103.984 76.3917 103.958 76.53 103.958 76.68C103.958 76.8733 104.006 77.0333 104.103 77.16C104.203 77.2867 104.333 77.395 104.493 77.485C104.653 77.575 104.834 77.6533 105.038 77.72C105.241 77.7867 105.449 77.8567 105.663 77.93C105.876 78 106.084 78.0817 106.288 78.175C106.491 78.2683 106.673 78.3867 106.833 78.53C106.993 78.67 107.121 78.8433 107.218 79.05C107.318 79.2533 107.368 79.5033 107.368 79.8C107.368 80.1167 107.313 80.4133 107.203 80.69C107.096 80.9667 106.939 81.2083 106.733 81.415C106.526 81.6217 106.271 81.785 105.968 81.905C105.668 82.0217 105.326 82.08 104.943 82.08C104.713 82.08 104.489 82.0567 104.273 82.01C104.056 81.9667 103.851 81.905 103.658 81.825C103.464 81.7417 103.283 81.6433 103.113 81.53C102.946 81.4133 102.796 81.2833 102.663 81.14L102.968 80.63C102.998 80.59 103.033 80.5567 103.073 80.53C103.116 80.5033 103.164 80.49 103.218 80.49C103.288 80.49 103.368 80.5267 103.458 80.6C103.551 80.6733 103.664 80.755 103.798 80.845C103.934 80.9317 104.096 81.0117 104.283 81.085C104.473 81.1583 104.703 81.195 104.973 81.195C105.193 81.195 105.389 81.1667 105.563 81.11C105.736 81.05 105.881 80.9667 105.998 80.86C106.118 80.75 106.209 80.6183 106.273 80.465C106.336 80.3117 106.368 80.1417 106.368 79.955C106.368 79.745 106.319 79.5733 106.223 79.44C106.126 79.3067 105.998 79.195 105.838 79.105C105.678 79.015 105.496 78.9383 105.293 78.875C105.089 78.8117 104.881 78.7467 104.668 78.68C104.454 78.61 104.246 78.53 104.043 78.44C103.839 78.35 103.658 78.2333 103.498 78.09C103.338 77.9433 103.209 77.7617 103.113 77.545C103.016 77.325 102.968 77.055 102.968 76.735C102.968 76.4783 103.018 76.23 103.118 75.99C103.218 75.75 103.363 75.5383 103.553 75.355C103.746 75.1683 103.983 75.02 104.263 74.91C104.543 74.7967 104.863 74.74 105.223 74.74C105.626 74.74 105.996 74.805 106.333 74.935C106.673 75.0617 106.968 75.245 107.218 75.485L106.958 75.99ZM110.418 76.84C110.791 76.84 111.128 76.9017 111.428 77.025C111.731 77.145 111.988 77.32 112.198 77.55C112.411 77.7767 112.575 78.0517 112.688 78.375C112.801 78.695 112.858 79.055 112.858 79.455C112.858 79.855 112.801 80.2167 112.688 80.54C112.575 80.8633 112.411 81.1383 112.198 81.365C111.988 81.5917 111.731 81.7667 111.428 81.89C111.128 82.01 110.791 82.07 110.418 82.07C110.041 82.07 109.701 82.01 109.398 81.89C109.098 81.7667 108.841 81.5917 108.628 81.365C108.415 81.1383 108.25 80.8633 108.133 80.54C108.02 80.2167 107.963 79.855 107.963 79.455C107.963 79.055 108.02 78.695 108.133 78.375C108.25 78.0517 108.415 77.7767 108.628 77.55C108.841 77.32 109.098 77.145 109.398 77.025C109.701 76.9017 110.041 76.84 110.418 76.84ZM110.418 81.31C110.898 81.31 111.256 81.1483 111.493 80.825C111.73 80.5017 111.848 80.0467 111.848 79.46C111.848 78.8733 111.73 78.4183 111.493 78.095C111.256 77.7683 110.898 77.605 110.418 77.605C109.931 77.605 109.568 77.7683 109.328 78.095C109.091 78.4183 108.973 78.8733 108.973 79.46C108.973 80.0467 109.091 80.5017 109.328 80.825C109.568 81.1483 109.931 81.31 110.418 81.31ZM117.306 77.87C117.276 77.9067 117.246 77.9367 117.216 77.96C117.19 77.98 117.15 77.99 117.096 77.99C117.043 77.99 116.986 77.97 116.926 77.93C116.87 77.8867 116.796 77.8417 116.706 77.795C116.62 77.745 116.513 77.7 116.386 77.66C116.263 77.6167 116.11 77.595 115.926 77.595C115.686 77.595 115.475 77.6383 115.291 77.725C115.108 77.8117 114.955 77.935 114.831 78.095C114.711 78.255 114.62 78.45 114.556 78.68C114.493 78.91 114.461 79.1683 114.461 79.455C114.461 79.7517 114.495 80.0167 114.561 80.25C114.628 80.48 114.723 80.675 114.846 80.835C114.97 80.9917 115.12 81.1117 115.296 81.195C115.473 81.275 115.67 81.315 115.886 81.315C116.096 81.315 116.27 81.29 116.406 81.24C116.543 81.1867 116.656 81.13 116.746 81.07C116.836 81.01 116.911 80.955 116.971 80.905C117.031 80.8517 117.093 80.825 117.156 80.825C117.236 80.825 117.298 80.855 117.341 80.915L117.621 81.275C117.505 81.4183 117.373 81.54 117.226 81.64C117.083 81.74 116.93 81.8217 116.766 81.885C116.603 81.9483 116.431 81.995 116.251 82.025C116.075 82.055 115.895 82.07 115.711 82.07C115.395 82.07 115.098 82.0117 114.821 81.895C114.548 81.7783 114.31 81.6083 114.106 81.385C113.906 81.1617 113.748 80.8883 113.631 80.565C113.515 80.2383 113.456 79.8683 113.456 79.455C113.456 79.0783 113.508 78.73 113.611 78.41C113.718 78.09 113.873 77.815 114.076 77.585C114.283 77.3517 114.536 77.17 114.836 77.04C115.136 76.9067 115.48 76.84 115.866 76.84C116.23 76.84 116.55 76.8983 116.826 77.015C117.103 77.1317 117.35 77.2967 117.566 77.51L117.306 77.87ZM119.251 77.895C119.415 77.5617 119.611 77.3 119.841 77.11C120.071 76.92 120.348 76.825 120.671 76.825C120.781 76.825 120.885 76.8383 120.981 76.865C121.081 76.8883 121.168 76.925 121.241 76.975L121.176 77.71C121.153 77.8 121.098 77.845 121.011 77.845C120.965 77.845 120.895 77.8367 120.801 77.82C120.708 77.8 120.608 77.79 120.501 77.79C120.345 77.79 120.206 77.8133 120.086 77.86C119.966 77.9033 119.858 77.97 119.761 78.06C119.668 78.1467 119.585 78.255 119.511 78.385C119.438 78.5117 119.37 78.6567 119.306 78.82V82H118.331V76.92H118.891C118.998 76.92 119.07 76.94 119.106 76.98C119.146 77.0167 119.175 77.0833 119.191 77.18L119.251 77.895ZM124.445 79.745C124.049 79.7583 123.712 79.79 123.435 79.84C123.159 79.8867 122.934 79.95 122.76 80.03C122.587 80.11 122.462 80.205 122.385 80.315C122.309 80.4217 122.27 80.5417 122.27 80.675C122.27 80.8017 122.29 80.9117 122.33 81.005C122.374 81.095 122.43 81.17 122.5 81.23C122.574 81.2867 122.659 81.3283 122.755 81.355C122.852 81.3817 122.957 81.395 123.07 81.395C123.22 81.395 123.357 81.38 123.48 81.35C123.607 81.32 123.725 81.2783 123.835 81.225C123.945 81.1683 124.05 81.1 124.15 81.02C124.25 80.94 124.349 80.8483 124.445 80.745V79.745ZM121.585 77.63C121.869 77.36 122.175 77.1583 122.505 77.025C122.839 76.8917 123.204 76.825 123.6 76.825C123.89 76.825 124.147 76.8733 124.37 76.97C124.594 77.0633 124.782 77.195 124.935 77.365C125.089 77.535 125.204 77.7383 125.28 77.975C125.36 78.2117 125.4 78.4733 125.4 78.76V82H124.965C124.869 82 124.795 81.985 124.745 81.955C124.695 81.9217 124.655 81.8617 124.625 81.775L124.52 81.33C124.39 81.45 124.262 81.5567 124.135 81.65C124.009 81.74 123.875 81.8183 123.735 81.885C123.599 81.9483 123.452 81.9967 123.295 82.03C123.139 82.0633 122.965 82.08 122.775 82.08C122.575 82.08 122.387 82.0533 122.21 82C122.037 81.9433 121.885 81.8583 121.755 81.745C121.625 81.6317 121.522 81.49 121.445 81.32C121.372 81.15 121.335 80.9517 121.335 80.725C121.335 80.525 121.389 80.3333 121.495 80.15C121.605 79.9633 121.782 79.7967 122.025 79.65C122.272 79.5033 122.592 79.3833 122.985 79.29C123.382 79.1967 123.869 79.1433 124.445 79.13V78.76C124.445 78.3767 124.364 78.09 124.2 77.9C124.037 77.71 123.797 77.615 123.48 77.615C123.267 77.615 123.087 77.6417 122.94 77.695C122.797 77.7483 122.672 77.8083 122.565 77.875C122.462 77.9383 122.37 77.9967 122.29 78.05C122.214 78.1033 122.134 78.13 122.05 78.13C121.984 78.13 121.925 78.1117 121.875 78.075C121.829 78.0383 121.79 77.995 121.76 77.945L121.585 77.63ZM131.613 80.46C131.673 80.46 131.725 80.4833 131.768 80.53L132.188 80.99C131.895 81.3367 131.537 81.605 131.113 81.795C130.693 81.985 130.187 82.08 129.593 82.08C129.073 82.08 128.602 81.99 128.178 81.81C127.758 81.63 127.398 81.3783 127.098 81.055C126.802 80.7317 126.572 80.345 126.408 79.895C126.245 79.445 126.163 78.95 126.163 78.41C126.163 77.87 126.248 77.375 126.418 76.925C126.592 76.475 126.833 76.0883 127.143 75.765C127.453 75.4417 127.823 75.19 128.253 75.01C128.687 74.83 129.165 74.74 129.688 74.74C130.198 74.74 130.652 74.8233 131.048 74.99C131.445 75.1567 131.79 75.3783 132.083 75.655L131.733 76.15C131.71 76.1867 131.68 76.2167 131.643 76.24C131.61 76.2633 131.565 76.275 131.508 76.275C131.445 76.275 131.37 76.2433 131.283 76.18C131.2 76.1167 131.088 76.0467 130.948 75.97C130.812 75.89 130.642 75.8183 130.438 75.755C130.235 75.6917 129.982 75.66 129.678 75.66C129.322 75.66 128.995 75.7233 128.698 75.85C128.402 75.9733 128.145 76.1533 127.928 76.39C127.715 76.6233 127.548 76.9117 127.428 77.255C127.312 77.595 127.253 77.98 127.253 78.41C127.253 78.8467 127.315 79.235 127.438 79.575C127.562 79.915 127.732 80.2033 127.948 80.44C128.165 80.6767 128.42 80.8567 128.713 80.98C129.007 81.1033 129.323 81.165 129.663 81.165C129.87 81.165 130.055 81.1533 130.218 81.13C130.385 81.1033 130.537 81.065 130.673 81.015C130.813 80.965 130.945 80.9017 131.068 80.825C131.192 80.745 131.313 80.65 131.433 80.54C131.46 80.5167 131.488 80.4983 131.518 80.485C131.548 80.4683 131.58 80.46 131.613 80.46ZM133.833 77.565C134.047 77.3483 134.282 77.1733 134.538 77.04C134.798 76.9067 135.097 76.84 135.433 76.84C135.713 76.84 135.958 76.8867 136.168 76.98C136.382 77.0733 136.56 77.205 136.703 77.375C136.847 77.5417 136.955 77.7433 137.028 77.98C137.102 78.2167 137.138 78.4783 137.138 78.765V82H136.158V78.765C136.158 78.4017 136.075 78.12 135.908 77.92C135.742 77.7167 135.487 77.615 135.143 77.615C134.893 77.615 134.658 77.675 134.438 77.795C134.222 77.9117 134.02 78.0717 133.833 78.275V82H132.858V74.62H133.833V77.565ZM140.984 79.745C140.587 79.7583 140.251 79.79 139.974 79.84C139.697 79.8867 139.472 79.95 139.299 80.03C139.126 80.11 139.001 80.205 138.924 80.315C138.847 80.4217 138.809 80.5417 138.809 80.675C138.809 80.8017 138.829 80.9117 138.869 81.005C138.912 81.095 138.969 81.17 139.039 81.23C139.112 81.2867 139.197 81.3283 139.294 81.355C139.391 81.3817 139.496 81.395 139.609 81.395C139.759 81.395 139.896 81.38 140.019 81.35C140.146 81.32 140.264 81.2783 140.374 81.225C140.484 81.1683 140.589 81.1 140.689 81.02C140.789 80.94 140.887 80.8483 140.984 80.745V79.745ZM138.124 77.63C138.407 77.36 138.714 77.1583 139.044 77.025C139.377 76.8917 139.742 76.825 140.139 76.825C140.429 76.825 140.686 76.8733 140.909 76.97C141.132 77.0633 141.321 77.195 141.474 77.365C141.627 77.535 141.742 77.7383 141.819 77.975C141.899 78.2117 141.939 78.4733 141.939 78.76V82H141.504C141.407 82 141.334 81.985 141.284 81.955C141.234 81.9217 141.194 81.8617 141.164 81.775L141.059 81.33C140.929 81.45 140.801 81.5567 140.674 81.65C140.547 81.74 140.414 81.8183 140.274 81.885C140.137 81.9483 139.991 81.9967 139.834 82.03C139.677 82.0633 139.504 82.08 139.314 82.08C139.114 82.08 138.926 82.0533 138.749 82C138.576 81.9433 138.424 81.8583 138.294 81.745C138.164 81.6317 138.061 81.49 137.984 81.32C137.911 81.15 137.874 80.9517 137.874 80.725C137.874 80.525 137.927 80.3333 138.034 80.15C138.144 79.9633 138.321 79.7967 138.564 79.65C138.811 79.5033 139.131 79.3833 139.524 79.29C139.921 79.1967 140.407 79.1433 140.984 79.13V78.76C140.984 78.3767 140.902 78.09 140.739 77.9C140.576 77.71 140.336 77.615 140.019 77.615C139.806 77.615 139.626 77.6417 139.479 77.695C139.336 77.7483 139.211 77.8083 139.104 77.875C139.001 77.9383 138.909 77.9967 138.829 78.05C138.752 78.1033 138.672 78.13 138.589 78.13C138.522 78.13 138.464 78.1117 138.414 78.075C138.367 78.0383 138.329 77.995 138.299 77.945L138.124 77.63ZM144.566 82.08C144.156 82.08 143.839 81.965 143.616 81.735C143.396 81.505 143.286 81.1767 143.286 80.75V77.71H142.696C142.639 77.71 142.591 77.6933 142.551 77.66C142.514 77.6233 142.496 77.57 142.496 77.5V77.105L143.321 76.99L143.541 75.475C143.554 75.4183 143.579 75.375 143.616 75.345C143.656 75.3117 143.706 75.295 143.766 75.295H144.261V77H145.701V77.71H144.261V80.685C144.261 80.885 144.309 81.035 144.406 81.135C144.506 81.2317 144.633 81.28 144.786 81.28C144.876 81.28 144.953 81.2683 145.016 81.245C145.083 81.2217 145.139 81.1967 145.186 81.17C145.233 81.14 145.273 81.1133 145.306 81.09C145.339 81.0667 145.369 81.055 145.396 81.055C145.429 81.055 145.454 81.0633 145.471 81.08C145.491 81.0933 145.511 81.1167 145.531 81.15L145.821 81.62C145.661 81.7667 145.471 81.88 145.251 81.96C145.031 82.04 144.803 82.08 144.566 82.08ZM148.523 75.28H153.003V75.96H148.523V75.28ZM150.763 76.56C151.893 76.56 152.713 77.41 152.713 78.63C152.713 79.84 151.893 80.69 150.763 80.69C149.643 80.69 148.823 79.84 148.823 78.63C148.823 77.41 149.643 76.56 150.763 76.56ZM150.763 77.27C150.073 77.27 149.573 77.83 149.573 78.63C149.573 79.43 150.073 79.99 150.763 79.99C151.463 79.99 151.973 79.43 151.973 78.63C151.973 77.83 151.463 77.27 150.763 77.27ZM155.393 73.74H156.193V82.78H155.393V73.74ZM153.953 77.54H155.663V78.23H153.953V77.54ZM153.463 73.94H154.243V82.34H153.463V73.94ZM150.363 74H151.183V75.7H150.363V74ZM161.293 74.68H162.093C162.093 77.29 161.193 79.69 158.013 81.29L157.543 80.65C160.333 79.25 161.293 77.24 161.293 74.77V74.68ZM158.033 74.68H161.793V75.35H158.033V74.68ZM161.243 76.92V77.55L157.713 77.88L157.573 77.16L161.243 76.92ZM164.143 73.74H164.973V82.78H164.143V73.74ZM162.073 77.36H164.543V78.05H162.073V77.36ZM166.532 78.85H174.702V79.53H166.532V78.85ZM167.582 81.9H173.852V82.58H167.582V81.9ZM167.582 80.16H168.412V82.24H167.582V80.16ZM170.202 77.63H171.022V79.08H170.202V77.63ZM167.612 77.26H173.742V77.91H167.612V77.26ZM167.612 74.07H173.702V74.73H168.432V77.51H167.612V74.07ZM168.192 75.66H173.462V76.29H168.192V75.66ZM181.738 79.325L180.673 76.54C180.597 76.35 180.52 76.11 180.443 75.82C180.407 75.9633 180.368 76.0967 180.328 76.22C180.292 76.3433 180.255 76.4533 180.218 76.55L179.158 79.325H181.738ZM183.843 82H183.023C182.93 82 182.853 81.9767 182.793 81.93C182.733 81.8833 182.69 81.8233 182.663 81.75L182.028 80.085H178.863L178.228 81.75C178.205 81.8133 178.162 81.8717 178.098 81.925C178.035 81.975 177.958 82 177.868 82H177.048L179.908 74.82H180.983L183.843 82ZM185.32 74.62V82H184.34V74.62H185.32ZM187.513 74.62V82H186.533V74.62H187.513ZM193.27 78.28C193.543 78.28 193.783 78.2467 193.99 78.18C194.2 78.1133 194.375 78.02 194.515 77.9C194.655 77.7767 194.76 77.6317 194.83 77.465C194.9 77.295 194.935 77.1083 194.935 76.905C194.935 76.4917 194.798 76.18 194.525 75.97C194.255 75.76 193.848 75.655 193.305 75.655H192.3V78.28H193.27ZM196.62 82H195.67C195.48 82 195.341 81.925 195.255 81.775L193.48 79.285C193.423 79.2017 193.361 79.1433 193.295 79.11C193.228 79.0733 193.128 79.055 192.995 79.055H192.3V82H191.235V74.82H193.305C193.768 74.82 194.166 74.8683 194.5 74.965C194.836 75.0583 195.113 75.1933 195.33 75.37C195.55 75.5433 195.711 75.7533 195.815 76C195.921 76.2467 195.975 76.5233 195.975 76.83C195.975 77.08 195.936 77.315 195.86 77.535C195.783 77.755 195.67 77.9533 195.52 78.13C195.373 78.3033 195.193 78.4533 194.98 78.58C194.766 78.7067 194.525 78.8033 194.255 78.87C194.388 78.95 194.503 79.0617 194.6 79.205L196.62 82ZM198.095 76.92V82H197.12V76.92H198.095ZM198.28 75.35C198.28 75.44 198.262 75.5267 198.225 75.61C198.188 75.69 198.138 75.7617 198.075 75.825C198.015 75.885 197.943 75.9333 197.86 75.97C197.777 76.0033 197.69 76.02 197.6 76.02C197.51 76.02 197.425 76.0033 197.345 75.97C197.265 75.9333 197.193 75.885 197.13 75.825C197.07 75.7617 197.022 75.69 196.985 75.61C196.952 75.5267 196.935 75.44 196.935 75.35C196.935 75.2567 196.952 75.17 196.985 75.09C197.022 75.0067 197.07 74.935 197.13 74.875C197.193 74.8117 197.265 74.7633 197.345 74.73C197.425 74.6933 197.51 74.675 197.6 74.675C197.69 74.675 197.777 74.6933 197.86 74.73C197.943 74.7633 198.015 74.8117 198.075 74.875C198.138 74.935 198.188 75.0067 198.225 75.09C198.262 75.17 198.28 75.2567 198.28 75.35ZM201.091 79.465C201.265 79.465 201.416 79.4417 201.546 79.395C201.68 79.3483 201.79 79.2833 201.876 79.2C201.966 79.1133 202.033 79.01 202.076 78.89C202.123 78.77 202.146 78.6383 202.146 78.495C202.146 78.2017 202.056 77.9683 201.876 77.795C201.7 77.6183 201.438 77.53 201.091 77.53C200.748 77.53 200.486 77.6183 200.306 77.795C200.13 77.9683 200.041 78.2017 200.041 78.495C200.041 78.6383 200.063 78.77 200.106 78.89C200.153 79.0067 200.22 79.1083 200.306 79.195C200.396 79.2783 200.506 79.345 200.636 79.395C200.77 79.4417 200.921 79.465 201.091 79.465ZM202.646 82.265C202.646 82.145 202.613 82.05 202.546 81.98C202.48 81.9067 202.388 81.85 202.271 81.81C202.158 81.7667 202.025 81.7367 201.871 81.72C201.718 81.7 201.556 81.685 201.386 81.675C201.22 81.665 201.048 81.6567 200.871 81.65C200.695 81.64 200.525 81.6233 200.361 81.6C200.188 81.6867 200.045 81.7917 199.931 81.915C199.821 82.0383 199.766 82.1833 199.766 82.35C199.766 82.4567 199.793 82.5567 199.846 82.65C199.903 82.7433 199.988 82.8233 200.101 82.89C200.218 82.96 200.363 83.0133 200.536 83.05C200.713 83.09 200.923 83.11 201.166 83.11C201.406 83.11 201.618 83.0883 201.801 83.045C201.985 83.005 202.138 82.9467 202.261 82.87C202.388 82.7967 202.483 82.7083 202.546 82.605C202.613 82.5017 202.646 82.3883 202.646 82.265ZM203.636 77.11V77.475C203.636 77.595 203.561 77.67 203.411 77.7L202.866 77.78C202.913 77.8833 202.95 77.9933 202.976 78.11C203.003 78.2233 203.016 78.3433 203.016 78.47C203.016 78.72 202.968 78.9467 202.871 79.15C202.775 79.35 202.641 79.5217 202.471 79.665C202.301 79.8083 202.098 79.9183 201.861 79.995C201.628 80.0717 201.371 80.11 201.091 80.11C200.861 80.11 200.646 80.085 200.446 80.035C200.346 80.095 200.27 80.1617 200.216 80.235C200.166 80.305 200.141 80.375 200.141 80.445C200.141 80.5617 200.19 80.6483 200.286 80.705C200.386 80.7617 200.515 80.8033 200.671 80.83C200.831 80.8533 201.013 80.8683 201.216 80.875C201.423 80.8817 201.631 80.8933 201.841 80.91C202.055 80.9233 202.263 80.95 202.466 80.99C202.673 81.0267 202.855 81.0883 203.011 81.175C203.171 81.2583 203.3 81.375 203.396 81.525C203.496 81.6717 203.546 81.8633 203.546 82.1C203.546 82.32 203.491 82.5333 203.381 82.74C203.275 82.9467 203.118 83.13 202.911 83.29C202.705 83.45 202.453 83.5783 202.156 83.675C201.86 83.7717 201.523 83.82 201.146 83.82C200.77 83.82 200.441 83.7833 200.161 83.71C199.885 83.6367 199.653 83.5383 199.466 83.415C199.283 83.2917 199.145 83.1483 199.051 82.985C198.961 82.8217 198.916 82.6517 198.916 82.475C198.916 82.2283 198.993 82.02 199.146 81.85C199.3 81.6767 199.511 81.5417 199.781 81.445C199.635 81.3783 199.518 81.2883 199.431 81.175C199.345 81.0583 199.301 80.905 199.301 80.715C199.301 80.6417 199.315 80.5667 199.341 80.49C199.368 80.41 199.408 80.3317 199.461 80.255C199.518 80.175 199.586 80.1 199.666 80.03C199.75 79.96 199.845 79.8967 199.951 79.84C199.701 79.7 199.505 79.515 199.361 79.285C199.218 79.0517 199.146 78.78 199.146 78.47C199.146 78.22 199.195 77.995 199.291 77.795C199.388 77.595 199.521 77.4233 199.691 77.28C199.865 77.1367 200.07 77.0267 200.306 76.95C200.546 76.8733 200.808 76.835 201.091 76.835C201.531 76.835 201.91 76.9267 202.226 77.11H203.636ZM205.306 77.565C205.519 77.3483 205.754 77.1733 206.011 77.04C206.271 76.9067 206.569 76.84 206.906 76.84C207.186 76.84 207.431 76.8867 207.641 76.98C207.854 77.0733 208.033 77.205 208.176 77.375C208.319 77.5417 208.428 77.7433 208.501 77.98C208.574 78.2167 208.611 78.4783 208.611 78.765V82H207.631V78.765C207.631 78.4017 207.548 78.12 207.381 77.92C207.214 77.7167 206.959 77.615 206.616 77.615C206.366 77.615 206.131 77.675 205.911 77.795C205.694 77.9117 205.493 78.0717 205.306 78.275V82H204.331V74.62H205.306V77.565ZM211.248 82.08C210.838 82.08 210.522 81.965 210.298 81.735C210.078 81.505 209.968 81.1767 209.968 80.75V77.71H209.378C209.322 77.71 209.273 77.6933 209.233 77.66C209.197 77.6233 209.178 77.57 209.178 77.5V77.105L210.003 76.99L210.223 75.475C210.237 75.4183 210.262 75.375 210.298 75.345C210.338 75.3117 210.388 75.295 210.448 75.295H210.943V77H212.383V77.71H210.943V80.685C210.943 80.885 210.992 81.035 211.088 81.135C211.188 81.2317 211.315 81.28 211.468 81.28C211.558 81.28 211.635 81.2683 211.698 81.245C211.765 81.2217 211.822 81.1967 211.868 81.17C211.915 81.14 211.955 81.1133 211.988 81.09C212.022 81.0667 212.052 81.055 212.078 81.055C212.112 81.055 212.137 81.0633 212.153 81.08C212.173 81.0933 212.193 81.1167 212.213 81.15L212.503 81.62C212.343 81.7667 212.153 81.88 211.933 81.96C211.713 82.04 211.485 82.08 211.248 82.08ZM216.076 77.795C216.05 77.8383 216.021 77.87 215.991 77.89C215.961 77.9067 215.923 77.915 215.876 77.915C215.823 77.915 215.763 77.8967 215.696 77.86C215.633 77.8233 215.555 77.7833 215.461 77.74C215.371 77.6967 215.265 77.6567 215.141 77.62C215.018 77.5833 214.871 77.565 214.701 77.565C214.561 77.565 214.433 77.5833 214.316 77.62C214.203 77.6533 214.106 77.7017 214.026 77.765C213.946 77.825 213.885 77.8983 213.841 77.985C213.798 78.0683 213.776 78.1583 213.776 78.255C213.776 78.3817 213.813 78.4867 213.886 78.57C213.963 78.6533 214.061 78.725 214.181 78.785C214.305 78.845 214.443 78.9 214.596 78.95C214.753 78.9967 214.911 79.0467 215.071 79.1C215.235 79.1533 215.393 79.215 215.546 79.285C215.703 79.3517 215.841 79.4367 215.961 79.54C216.085 79.64 216.183 79.7617 216.256 79.905C216.333 80.0483 216.371 80.2233 216.371 80.43C216.371 80.6667 216.328 80.8867 216.241 81.09C216.158 81.29 216.033 81.4633 215.866 81.61C215.703 81.7567 215.5 81.8717 215.256 81.955C215.013 82.0383 214.735 82.08 214.421 82.08C214.071 82.08 213.748 82.0217 213.451 81.905C213.155 81.7883 212.906 81.64 212.706 81.46L212.936 81.085C212.963 81.0383 212.996 81.0033 213.036 80.98C213.076 80.9533 213.13 80.94 213.196 80.94C213.26 80.94 213.325 80.9633 213.391 81.01C213.458 81.0567 213.538 81.1083 213.631 81.165C213.725 81.2183 213.838 81.2683 213.971 81.315C214.105 81.3583 214.271 81.38 214.471 81.38C214.638 81.38 214.783 81.36 214.906 81.32C215.03 81.2767 215.131 81.22 215.211 81.15C215.295 81.0767 215.356 80.9933 215.396 80.9C215.436 80.8067 215.456 80.7083 215.456 80.605C215.456 80.4717 215.418 80.3617 215.341 80.275C215.268 80.185 215.17 80.1083 215.046 80.045C214.926 79.9817 214.788 79.9267 214.631 79.88C214.475 79.8333 214.315 79.7833 214.151 79.73C213.988 79.6767 213.828 79.615 213.671 79.545C213.515 79.475 213.375 79.3867 213.251 79.28C213.131 79.1733 213.033 79.0433 212.956 78.89C212.883 78.7367 212.846 78.55 212.846 78.33C212.846 78.1333 212.886 77.945 212.966 77.765C213.05 77.585 213.168 77.4267 213.321 77.29C213.478 77.1533 213.67 77.045 213.896 76.965C214.126 76.8817 214.388 76.84 214.681 76.84C215.018 76.84 215.321 76.8933 215.591 77C215.865 77.1067 216.098 77.2533 216.291 77.44L216.076 77.795ZM221.791 78.28C222.065 78.28 222.305 78.2467 222.511 78.18C222.721 78.1133 222.896 78.02 223.036 77.9C223.176 77.7767 223.281 77.6317 223.351 77.465C223.421 77.295 223.456 77.1083 223.456 76.905C223.456 76.4917 223.32 76.18 223.046 75.97C222.776 75.76 222.37 75.655 221.826 75.655H220.821V78.28H221.791ZM225.141 82H224.191C224.001 82 223.863 81.925 223.776 81.775L222.001 79.285C221.945 79.2017 221.883 79.1433 221.816 79.11C221.75 79.0733 221.65 79.055 221.516 79.055H220.821V82H219.756V74.82H221.826C222.29 74.82 222.688 74.8683 223.021 74.965C223.358 75.0583 223.635 75.1933 223.851 75.37C224.071 75.5433 224.233 75.7533 224.336 76C224.443 76.2467 224.496 76.5233 224.496 76.83C224.496 77.08 224.458 77.315 224.381 77.535C224.305 77.755 224.191 77.9533 224.041 78.13C223.895 78.3033 223.715 78.4533 223.501 78.58C223.288 78.7067 223.046 78.8033 222.776 78.87C222.91 78.95 223.025 79.0617 223.121 79.205L225.141 82ZM228.698 78.895C228.698 78.7017 228.67 78.5233 228.613 78.36C228.56 78.1967 228.48 78.055 228.373 77.935C228.266 77.815 228.136 77.7217 227.983 77.655C227.83 77.5883 227.653 77.555 227.453 77.555C227.043 77.555 226.72 77.6733 226.483 77.91C226.25 78.1467 226.101 78.475 226.038 78.895H228.698ZM229.503 81.275C229.383 81.415 229.245 81.5367 229.088 81.64C228.931 81.74 228.765 81.8217 228.588 81.885C228.411 81.9483 228.228 81.995 228.038 82.025C227.851 82.055 227.666 82.07 227.483 82.07C227.133 82.07 226.808 82.0117 226.508 81.895C226.211 81.775 225.953 81.6017 225.733 81.375C225.516 81.145 225.346 80.8617 225.223 80.525C225.103 80.185 225.043 79.795 225.043 79.355C225.043 79.0017 225.098 78.6733 225.208 78.37C225.318 78.0633 225.475 77.7967 225.678 77.57C225.885 77.3433 226.136 77.165 226.433 77.035C226.73 76.905 227.063 76.84 227.433 76.84C227.743 76.84 228.028 76.8917 228.288 76.995C228.551 77.095 228.778 77.2417 228.968 77.435C229.158 77.6283 229.306 77.8667 229.413 78.15C229.523 78.4333 229.578 78.7567 229.578 79.12C229.578 79.27 229.561 79.3717 229.528 79.425C229.495 79.475 229.433 79.5 229.343 79.5H226.013C226.023 79.8033 226.066 80.0683 226.143 80.295C226.22 80.5183 226.325 80.705 226.458 80.855C226.595 81.005 226.756 81.1167 226.943 81.19C227.13 81.2633 227.338 81.3 227.568 81.3C227.785 81.3 227.971 81.275 228.128 81.225C228.288 81.175 228.425 81.1217 228.538 81.065C228.655 81.005 228.751 80.95 228.828 80.9C228.908 80.85 228.978 80.825 229.038 80.825C229.118 80.825 229.18 80.855 229.223 80.915L229.503 81.275ZM233.421 77.795C233.394 77.8383 233.366 77.87 233.336 77.89C233.306 77.9067 233.268 77.915 233.221 77.915C233.168 77.915 233.108 77.8967 233.041 77.86C232.978 77.8233 232.899 77.7833 232.806 77.74C232.716 77.6967 232.609 77.6567 232.486 77.62C232.363 77.5833 232.216 77.565 232.046 77.565C231.906 77.565 231.778 77.5833 231.661 77.62C231.548 77.6533 231.451 77.7017 231.371 77.765C231.291 77.825 231.229 77.8983 231.186 77.985C231.143 78.0683 231.121 78.1583 231.121 78.255C231.121 78.3817 231.158 78.4867 231.231 78.57C231.308 78.6533 231.406 78.725 231.526 78.785C231.649 78.845 231.788 78.9 231.941 78.95C232.098 78.9967 232.256 79.0467 232.416 79.1C232.579 79.1533 232.738 79.215 232.891 79.285C233.048 79.3517 233.186 79.4367 233.306 79.54C233.429 79.64 233.528 79.7617 233.601 79.905C233.678 80.0483 233.716 80.2233 233.716 80.43C233.716 80.6667 233.673 80.8867 233.586 81.09C233.503 81.29 233.378 81.4633 233.211 81.61C233.048 81.7567 232.844 81.8717 232.601 81.955C232.358 82.0383 232.079 82.08 231.766 82.08C231.416 82.08 231.093 82.0217 230.796 81.905C230.499 81.7883 230.251 81.64 230.051 81.46L230.281 81.085C230.308 81.0383 230.341 81.0033 230.381 80.98C230.421 80.9533 230.474 80.94 230.541 80.94C230.604 80.94 230.669 80.9633 230.736 81.01C230.803 81.0567 230.883 81.1083 230.976 81.165C231.069 81.2183 231.183 81.2683 231.316 81.315C231.449 81.3583 231.616 81.38 231.816 81.38C231.983 81.38 232.128 81.36 232.251 81.32C232.374 81.2767 232.476 81.22 232.556 81.15C232.639 81.0767 232.701 80.9933 232.741 80.9C232.781 80.8067 232.801 80.7083 232.801 80.605C232.801 80.4717 232.763 80.3617 232.686 80.275C232.613 80.185 232.514 80.1083 232.391 80.045C232.271 79.9817 232.133 79.9267 231.976 79.88C231.819 79.8333 231.659 79.7833 231.496 79.73C231.333 79.6767 231.173 79.615 231.016 79.545C230.859 79.475 230.719 79.3867 230.596 79.28C230.476 79.1733 230.378 79.0433 230.301 78.89C230.228 78.7367 230.191 78.55 230.191 78.33C230.191 78.1333 230.231 77.945 230.311 77.765C230.394 77.585 230.513 77.4267 230.666 77.29C230.823 77.1533 231.014 77.045 231.241 76.965C231.471 76.8817 231.733 76.84 232.026 76.84C232.363 76.84 232.666 76.8933 232.936 77C233.209 77.1067 233.443 77.2533 233.636 77.44L233.421 77.795ZM237.937 78.895C237.937 78.7017 237.908 78.5233 237.852 78.36C237.798 78.1967 237.718 78.055 237.612 77.935C237.505 77.815 237.375 77.7217 237.222 77.655C237.068 77.5883 236.892 77.555 236.692 77.555C236.282 77.555 235.958 77.6733 235.722 77.91C235.488 78.1467 235.34 78.475 235.277 78.895H237.937ZM238.742 81.275C238.622 81.415 238.483 81.5367 238.327 81.64C238.17 81.74 238.003 81.8217 237.827 81.885C237.65 81.9483 237.467 81.995 237.277 82.025C237.09 82.055 236.905 82.07 236.722 82.07C236.372 82.07 236.047 82.0117 235.747 81.895C235.45 81.775 235.192 81.6017 234.972 81.375C234.755 81.145 234.585 80.8617 234.462 80.525C234.342 80.185 234.282 79.795 234.282 79.355C234.282 79.0017 234.337 78.6733 234.447 78.37C234.557 78.0633 234.713 77.7967 234.917 77.57C235.123 77.3433 235.375 77.165 235.672 77.035C235.968 76.905 236.302 76.84 236.672 76.84C236.982 76.84 237.267 76.8917 237.527 76.995C237.79 77.095 238.017 77.2417 238.207 77.435C238.397 77.6283 238.545 77.8667 238.652 78.15C238.762 78.4333 238.817 78.7567 238.817 79.12C238.817 79.27 238.8 79.3717 238.767 79.425C238.733 79.475 238.672 79.5 238.582 79.5H235.252C235.262 79.8033 235.305 80.0683 235.382 80.295C235.458 80.5183 235.563 80.705 235.697 80.855C235.833 81.005 235.995 81.1167 236.182 81.19C236.368 81.2633 236.577 81.3 236.807 81.3C237.023 81.3 237.21 81.275 237.367 81.225C237.527 81.175 237.663 81.1217 237.777 81.065C237.893 81.005 237.99 80.95 238.067 80.9C238.147 80.85 238.217 80.825 238.277 80.825C238.357 80.825 238.418 80.855 238.462 80.915L238.742 81.275ZM240.585 77.895C240.748 77.5617 240.945 77.3 241.175 77.11C241.405 76.92 241.681 76.825 242.005 76.825C242.115 76.825 242.218 76.8383 242.315 76.865C242.415 76.8883 242.501 76.925 242.575 76.975L242.51 77.71C242.486 77.8 242.431 77.845 242.345 77.845C242.298 77.845 242.228 77.8367 242.135 77.82C242.041 77.8 241.941 77.79 241.835 77.79C241.678 77.79 241.54 77.8133 241.42 77.86C241.3 77.9033 241.191 77.97 241.095 78.06C241.001 78.1467 240.918 78.255 240.845 78.385C240.771 78.5117 240.703 78.6567 240.64 78.82V82H239.665V76.92H240.225C240.331 76.92 240.403 76.94 240.44 76.98C240.48 77.0167 240.508 77.0833 240.525 77.18L240.585 77.895ZM247.537 76.92L245.477 82H244.597L242.537 76.92H243.342C243.418 76.92 243.482 76.9383 243.532 76.975C243.582 77.0117 243.615 77.0583 243.632 77.115L244.847 80.235C244.89 80.365 244.927 80.495 244.957 80.625C244.99 80.7517 245.02 80.8783 245.047 81.005C245.073 80.8783 245.103 80.7517 245.137 80.625C245.17 80.4983 245.21 80.3683 245.257 80.235L246.487 77.115C246.507 77.0583 246.542 77.0117 246.592 76.975C246.642 76.9383 246.702 76.92 246.772 76.92H247.537ZM251.331 78.895C251.331 78.7017 251.303 78.5233 251.246 78.36C251.193 78.1967 251.113 78.055 251.006 77.935C250.899 77.815 250.769 77.7217 250.616 77.655C250.463 77.5883 250.286 77.555 250.086 77.555C249.676 77.555 249.353 77.6733 249.116 77.91C248.883 78.1467 248.734 78.475 248.671 78.895H251.331ZM252.136 81.275C252.016 81.415 251.878 81.5367 251.721 81.64C251.564 81.74 251.398 81.8217 251.221 81.885C251.044 81.9483 250.861 81.995 250.671 82.025C250.484 82.055 250.299 82.07 250.116 82.07C249.766 82.07 249.441 82.0117 249.141 81.895C248.844 81.775 248.586 81.6017 248.366 81.375C248.149 81.145 247.979 80.8617 247.856 80.525C247.736 80.185 247.676 79.795 247.676 79.355C247.676 79.0017 247.731 78.6733 247.841 78.37C247.951 78.0633 248.108 77.7967 248.311 77.57C248.518 77.3433 248.769 77.165 249.066 77.035C249.363 76.905 249.696 76.84 250.066 76.84C250.376 76.84 250.661 76.8917 250.921 76.995C251.184 77.095 251.411 77.2417 251.601 77.435C251.791 77.6283 251.939 77.8667 252.046 78.15C252.156 78.4333 252.211 78.7567 252.211 79.12C252.211 79.27 252.194 79.3717 252.161 79.425C252.128 79.475 252.066 79.5 251.976 79.5H248.646C248.656 79.8033 248.699 80.0683 248.776 80.295C248.853 80.5183 248.958 80.705 249.091 80.855C249.228 81.005 249.389 81.1167 249.576 81.19C249.763 81.2633 249.971 81.3 250.201 81.3C250.418 81.3 250.604 81.275 250.761 81.225C250.921 81.175 251.058 81.1217 251.171 81.065C251.288 81.005 251.384 80.95 251.461 80.9C251.541 80.85 251.611 80.825 251.671 80.825C251.751 80.825 251.813 80.855 251.856 80.915L252.136 81.275ZM256.334 78.15C256.174 77.94 256 77.7933 255.814 77.71C255.63 77.6267 255.424 77.585 255.194 77.585C254.747 77.585 254.4 77.7467 254.154 78.07C253.91 78.39 253.789 78.8583 253.789 79.475C253.789 79.7983 253.815 80.075 253.869 80.305C253.925 80.5317 254.005 80.7183 254.109 80.865C254.215 81.0083 254.345 81.115 254.499 81.185C254.652 81.2517 254.825 81.285 255.019 81.285C255.302 81.285 255.547 81.2217 255.754 81.095C255.96 80.9683 256.154 80.79 256.334 80.56V78.15ZM257.314 74.62V82H256.724C256.587 82 256.502 81.935 256.469 81.805L256.384 81.22C256.167 81.4767 255.92 81.6833 255.644 81.84C255.37 81.9933 255.054 82.07 254.694 82.07C254.404 82.07 254.14 82.0133 253.904 81.9C253.67 81.7867 253.47 81.6217 253.304 81.405C253.137 81.185 253.009 80.9133 252.919 80.59C252.829 80.2667 252.784 79.895 252.784 79.475C252.784 79.0983 252.834 78.7483 252.934 78.425C253.034 78.1017 253.179 77.8217 253.369 77.585C253.559 77.3483 253.789 77.1633 254.059 77.03C254.329 76.8933 254.634 76.825 254.974 76.825C255.28 76.825 255.54 76.875 255.754 76.975C255.97 77.075 256.164 77.2167 256.334 77.4V74.62H257.314ZM258.314 81.415C258.314 81.325 258.331 81.24 258.364 81.16C258.397 81.08 258.442 81.01 258.499 80.95C258.559 80.89 258.629 80.8433 258.709 80.81C258.789 80.7733 258.876 80.755 258.969 80.755C259.059 80.755 259.144 80.7733 259.224 80.81C259.304 80.8433 259.374 80.89 259.434 80.95C259.494 81.01 259.541 81.08 259.574 81.16C259.611 81.24 259.629 81.325 259.629 81.415C259.629 81.5083 259.611 81.595 259.574 81.675C259.541 81.755 259.494 81.825 259.434 81.885C259.374 81.945 259.304 81.9917 259.224 82.025C259.144 82.0583 259.059 82.075 258.969 82.075C258.876 82.075 258.789 82.0583 258.709 82.025C258.629 81.9917 258.559 81.945 258.499 81.885C258.442 81.825 258.397 81.755 258.364 81.675C258.331 81.595 258.314 81.5083 258.314 81.415Z" fill="black"/>
</svg>
