<svg width="607" height="469" viewBox="0 0 607 469" fill="none" xmlns="http://www.w3.org/2000/svg">
<g clip-path="url(#clip0_53_28226)">
<path d="M495.75 12.6667C462.358 4.82084 425.656 1.45834 390.458 1.45834C331.796 1.45834 268.621 10.425 225 35.0833C181.379 10.425 118.204 1.45834 59.5417 1.45834C0.879211 1.45834 -62.2958 10.425 -105.917 35.0833V363.487C-105.917 369.092 -98.3958 374.696 -90.875 374.696C-87.8666 374.696 -86.3625 373.575 -83.3541 373.575C-42.7416 359.004 15.9209 348.917 59.5417 348.917C118.204 348.917 181.379 357.883 225 382.542C265.613 363.487 339.317 348.917 390.458 348.917C440.096 348.917 491.238 355.642 533.354 372.454C536.363 373.575 537.867 373.575 540.875 373.575C548.396 373.575 555.917 367.971 555.917 362.367V35.0833C537.867 24.9958 518.313 18.2708 495.75 12.6667ZM495.75 315.292C462.658 307.446 426.558 304.083 390.458 304.083C339.317 304.083 265.613 318.654 225 337.708V79.9167C265.613 60.8625 339.317 46.2917 390.458 46.2917C426.558 46.2917 462.658 49.6542 495.75 57.5V315.292Z" fill="#376042" fill-opacity="0.5"/>
<path d="M222 79.2779C212.089 74.9475 171.772 70.0003 157.755 79.278C131.923 96.3373 141.154 123.291 146.416 129.905C154.342 139.865 172.655 141.61 177.808 129.616C187.434 107.308 162.323 87.8339 127.708 100.537C93.0939 113.239 87.574 152.567 117.253 172.474C148.605 193.47 197.073 171.779 210.356 232.025C220.335 277.31 182.417 287.651 162.962 290" stroke="#557EFF" stroke-miterlimit="10" stroke-linecap="round" stroke-dasharray="8 8"/>
<path d="M309.95 437.514C426.454 437.514 520.9 427.326 520.9 414.757C520.9 402.189 426.454 392 309.95 392C193.446 392 99 402.189 99 414.757C99 427.326 193.446 437.514 309.95 437.514Z" fill="#D2D9FF"/>
<path d="M483 261.818C485.46 273.731 489.957 286.932 497.869 287.567C512.416 288.821 516.641 253.509 516.553 242.608C516.414 226.18 510.045 210.679 504.687 219.468C494.707 235.879 498.59 275.105 515.193 287.567C531.795 300.03 545.102 262.676 539.625 219.519C533.857 173.908 509.482 160.672 521.701 87.1826C530.859 31.9751 548.037 49.4163 556 61.4329" stroke="white" stroke-miterlimit="10" stroke-linecap="round" stroke-dasharray="8 8"/>
<path d="M478.113 205H373C370.239 205 368 207.239 368 210V243.373C368 246.134 370.239 248.373 373 248.373H478.113C480.875 248.373 483.113 246.134 483.113 243.373V210C483.113 207.239 480.875 205 478.113 205Z" fill="#E9EFFF"/>
<path d="M387.954 239.248C394.719 239.248 400.203 233.81 400.203 227.102C400.203 220.394 394.719 214.956 387.954 214.956C381.189 214.956 375.704 220.394 375.704 227.102C375.704 233.81 381.189 239.248 387.954 239.248Z" fill="#7DA2FF"/>
<path d="M385.037 229.286H391.347V230.864H385.037V229.286Z" fill="white"/>
<path d="M391.873 226.132C392.744 226.132 393.45 225.425 393.45 224.554C393.45 223.683 392.744 222.977 391.873 222.977C391.001 222.977 390.295 223.683 390.295 224.554C390.295 225.425 391.001 226.132 391.873 226.132Z" fill="white"/>
<path d="M384.512 226.132C385.383 226.132 386.089 225.425 386.089 224.554C386.089 223.683 385.383 222.977 384.512 222.977C383.641 222.977 382.934 223.683 382.934 224.554C382.934 225.425 383.641 226.132 384.512 226.132Z" fill="white"/>
<path d="M388.182 216.668C382.377 216.668 377.677 221.379 377.677 227.183C377.677 232.988 382.377 237.699 388.182 237.699C393.997 237.699 398.708 232.988 398.708 227.183C398.708 221.379 393.997 216.668 388.182 216.668ZM388.192 235.596C383.544 235.596 379.78 231.831 379.78 227.183C379.78 222.535 383.544 218.771 388.192 218.771C392.84 218.771 396.604 222.535 396.604 227.183C396.604 231.831 392.84 235.596 388.192 235.596Z" fill="white"/>
<path d="M477.101 213.182H405.264V219.511H477.101V213.182Z" fill="#7DA2FF"/>
<path d="M477.101 223.698H405.264V230.027H477.101V223.698Z" fill="#7DA2FF"/>
<path d="M477.101 233.862H405.264V240.191H477.101V233.862Z" fill="#7DA2FF"/>
<path d="M597.678 334.785L597.581 331.077L593.229 331.205L596.936 328.936L594.986 325.74L591.263 327.993L593.342 324.205L590.119 322.431L588.233 325.883V322H584.493V326.315L582.318 322.575L579.094 324.445L581.27 328.169L577.498 326.011L575.629 329.208L579.706 331.541L575 331.669L575.097 335.376L579.449 335.264L575.741 337.518L577.708 340.714L581.415 338.461L579.336 342.248L582.559 344.022L584.445 340.57V344.486H588.184V340.171L590.36 343.91L593.584 342.056L591.408 338.301L595.18 340.458L597.049 337.262L592.971 334.929L597.678 334.785ZM586.299 338.876C585.173 338.876 584.073 338.545 583.138 337.925C582.202 337.306 581.473 336.424 581.042 335.394C580.611 334.363 580.499 333.229 580.718 332.134C580.938 331.04 581.48 330.035 582.275 329.246C583.071 328.457 584.085 327.919 585.189 327.702C586.292 327.484 587.436 327.596 588.476 328.023C589.516 328.45 590.404 329.173 591.029 330.101C591.655 331.028 591.988 332.119 591.988 333.235C591.99 333.976 591.845 334.711 591.559 335.396C591.274 336.082 590.855 336.704 590.326 337.229C589.798 337.753 589.17 338.168 588.478 338.451C587.787 338.734 587.046 338.878 586.299 338.876Z" fill="white"/>
<path d="M589.683 333.107C589.683 333.771 589.485 334.42 589.113 334.971C588.741 335.523 588.212 335.953 587.594 336.207C586.975 336.462 586.295 336.528 585.638 336.398C584.982 336.269 584.379 335.949 583.905 335.48C583.432 335.011 583.109 334.413 582.979 333.762C582.848 333.111 582.915 332.436 583.171 331.823C583.428 331.209 583.862 330.685 584.418 330.316C584.975 329.948 585.629 329.751 586.299 329.751C587.196 329.751 588.057 330.104 588.692 330.734C589.327 331.363 589.683 332.217 589.683 333.107Z" fill="white"/>
<path d="M381.755 115H239V178.925H381.755V115Z" fill="#E9EFFF"/>
<path d="M294.435 151.472C296.506 138.768 287.798 126.805 274.986 124.752C262.173 122.699 250.108 131.334 248.038 144.037C245.967 156.741 254.675 168.704 267.487 170.757C280.3 172.81 292.365 164.176 294.435 151.472Z" fill="#7DA2FF"/>
<path d="M278.586 165.268C288.336 161.23 292.938 150.12 288.865 140.453C284.793 130.786 273.588 126.222 263.838 130.26C254.088 134.298 249.486 145.408 253.558 155.075C257.631 164.743 268.836 169.306 278.586 165.268Z" fill="#557EFF"/>
<path d="M375.502 122.367H301.279V130.182H375.502V122.367Z" fill="#557EFF"/>
<path d="M375.502 136.095H301.279V143.91H375.502V136.095Z" fill="#557EFF"/>
<path d="M375.502 149.823H301.279V157.638H375.502V149.823Z" fill="#557EFF"/>
<path d="M375.502 163.551H301.279V171.366H375.502V163.551Z" fill="#557EFF"/>
<path d="M279.462 145.204V143.101C279.462 141.944 278.515 140.998 277.359 140.998H274.204C274.204 139.252 272.795 137.843 271.049 137.843C269.304 137.843 267.895 139.252 267.895 140.998H264.74C263.583 140.998 262.637 141.944 262.637 143.101V145.204C260.891 145.204 259.482 146.613 259.482 148.359C259.482 150.104 260.891 151.513 262.637 151.513V155.72C262.637 156.876 263.583 157.823 264.74 157.823H277.359C278.515 157.823 279.462 156.876 279.462 155.72V151.513C281.207 151.513 282.616 150.104 282.616 148.359C282.616 146.613 281.207 145.204 279.462 145.204ZM277.359 155.72H264.74V143.101H277.359V155.72ZM267.895 149.41C267.022 149.41 266.317 148.706 266.317 147.833C266.317 146.96 267.022 146.256 267.895 146.256C268.767 146.256 269.472 146.96 269.472 147.833C269.472 148.706 268.767 149.41 267.895 149.41ZM275.781 147.833C275.781 148.706 275.077 149.41 274.204 149.41C273.331 149.41 272.627 148.706 272.627 147.833C272.627 146.96 273.331 146.256 274.204 146.256C275.077 146.256 275.781 146.96 275.781 147.833ZM266.843 151.513H275.255V153.617H266.843V151.513Z" fill="white"/>
<path d="M248 195C251.866 195 255 191.866 255 188C255 184.134 251.866 181 248 181C244.134 181 241 184.134 241 188C241 191.866 244.134 195 248 195Z" fill="white"/>
<path d="M250.625 187.25C251.246 187.25 251.75 186.746 251.75 186.125C251.75 185.504 251.246 185 250.625 185C250.004 185 249.5 185.504 249.5 186.125C249.5 186.746 250.004 187.25 250.625 187.25Z" fill="#E5B445"/>
<path d="M245.375 187.25C245.996 187.25 246.5 186.746 246.5 186.125C246.5 185.504 245.996 185 245.375 185C244.754 185 244.25 185.504 244.25 186.125C244.25 186.746 244.754 187.25 245.375 187.25Z" fill="#E5B445"/>
<path d="M248 192.5C249.71 192.5 251.165 191.255 251.75 189.5H244.25C244.835 191.255 246.29 192.5 248 192.5Z" fill="#E5B445"/>
<path d="M247.992 180.5C243.852 180.5 240.5 183.86 240.5 188C240.5 192.14 243.852 195.5 247.992 195.5C252.14 195.5 255.5 192.14 255.5 188C255.5 183.86 252.14 180.5 247.992 180.5ZM248 194C244.685 194 242 191.315 242 188C242 184.685 244.685 182 248 182C251.315 182 254 184.685 254 188C254 191.315 251.315 194 248 194Z" fill="#E5B445"/>
</g>
<path d="M32.9092 388.951C32.9092 388.951 14.5026 384.397 2.9784 352.434C-8.54584 320.472 16.2595 305.881 28.2673 279.848C40.275 253.814 56.3123 250.842 65.1609 259.072C74.0096 267.303 73.2199 305.785 80.7791 313.664C88.3384 321.543 101.039 347.576 95.0273 365.427C93.2786 370.651 90.4383 375.451 86.6917 379.513C82.9451 383.575 78.3765 386.807 73.2843 388.999L32.9092 388.951Z" fill="#D2D9FF"/>
<path d="M48.2856 388.951C43.958 356.753 43.958 324.128 48.2856 291.93C46.1258 324.235 46.1258 356.646 48.2856 388.951Z" fill="#6682FE"/>
<path d="M22.2554 325.027C30.9489 333.542 38.8517 342.817 45.868 352.738C37.1657 344.23 29.2623 334.955 22.2554 325.027Z" fill="#6682FE"/>
<path d="M47.0768 377.285C55.8077 368.29 65.3219 360.076 75.5086 352.738C66.7813 361.737 57.2668 369.952 47.0768 377.285Z" fill="#6682FE"/>
<path d="M80.763 388.951H27.1229V399.962H80.763V388.951Z" fill="#F9C94E"/>
<path d="M34.0536 399.962L37.261 432.692H69.5128L73.2682 399.962H34.0536Z" fill="#E5B445"/>
<defs>
<clipPath id="clip0_53_28226">
<rect width="510" height="469" fill="white" transform="translate(97)"/>
</clipPath>
</defs>
</svg>
