<svg width="605" height="469" viewBox="0 0 605 469" fill="none" xmlns="http://www.w3.org/2000/svg">
<g clip-path="url(#clip0_53_28226)">
<path d="M493.75 12.6667C460.358 4.82084 423.656 1.45834 388.458 1.45834C329.796 1.45834 266.621 10.425 223 35.0833C179.379 10.425 116.204 1.45834 57.5417 1.45834C-1.12079 1.45834 -64.2958 10.425 -107.917 35.0833V363.487C-107.917 369.092 -100.396 374.696 -92.875 374.696C-89.8666 374.696 -88.3625 373.575 -85.3541 373.575C-44.7416 359.004 13.9209 348.917 57.5417 348.917C116.204 348.917 179.379 357.883 223 382.542C263.613 363.487 337.317 348.917 388.458 348.917C438.096 348.917 489.238 355.642 531.354 372.454C534.363 373.575 535.867 373.575 538.875 373.575C546.396 373.575 553.917 367.971 553.917 362.367V35.0833C535.867 24.9958 516.313 18.2708 493.75 12.6667ZM493.75 315.292C460.658 307.446 424.558 304.083 388.458 304.083C337.317 304.083 263.613 318.654 223 337.708V79.9167C263.613 60.8625 337.317 46.2917 388.458 46.2917C424.558 46.2917 460.658 49.6542 493.75 57.5V315.292Z" fill="#376042" fill-opacity="0.5"/>
<path d="M220 79.2779C210.089 74.9475 169.772 70.0003 155.755 79.278C129.923 96.3373 139.154 123.291 144.416 129.905C152.342 139.865 170.655 141.61 175.808 129.616C185.434 107.308 160.323 87.8339 125.708 100.537C91.0939 113.239 85.574 152.567 115.253 172.474C146.605 193.47 195.073 171.779 208.356 232.025C218.335 277.31 180.417 287.651 160.962 290" stroke="#557EFF" stroke-miterlimit="10" stroke-linecap="round" stroke-dasharray="8 8"/>
<path d="M307.95 437.514C424.454 437.514 518.9 427.326 518.9 414.757C518.9 402.189 424.454 392 307.95 392C191.446 392 97 402.189 97 414.757C97 427.326 191.446 437.514 307.95 437.514Z" fill="#D2D9FF"/>
<path d="M481 261.818C483.46 273.731 487.957 286.932 495.869 287.567C510.416 288.821 514.641 253.509 514.553 242.608C514.414 226.18 508.045 210.679 502.687 219.468C492.707 235.879 496.59 275.105 513.193 287.567C529.795 300.03 543.102 262.676 537.625 219.519C531.857 173.908 507.482 160.672 519.701 87.1826C528.859 31.9751 546.037 49.4163 554 61.4329" stroke="#EEEEEE" stroke-miterlimit="10" stroke-linecap="round" stroke-dasharray="8 8"/>
<path d="M476.113 205H371C368.239 205 366 207.239 366 210V243.373C366 246.134 368.239 248.373 371 248.373H476.113C478.875 248.373 481.113 246.134 481.113 243.373V210C481.113 207.239 478.875 205 476.113 205Z" fill="#E9EFFF"/>
<path d="M385.954 239.248C392.719 239.248 398.203 233.81 398.203 227.102C398.203 220.394 392.719 214.956 385.954 214.956C379.189 214.956 373.704 220.394 373.704 227.102C373.704 233.81 379.189 239.248 385.954 239.248Z" fill="#7DA2FF"/>
<path d="M383.037 229.286H389.347V230.864H383.037V229.286Z" fill="#EEEEEE"/>
<path d="M389.873 226.132C390.744 226.132 391.45 225.425 391.45 224.554C391.45 223.683 390.744 222.977 389.873 222.977C389.001 222.977 388.295 223.683 388.295 224.554C388.295 225.425 389.001 226.132 389.873 226.132Z" fill="#EEEEEE"/>
<path d="M382.512 226.132C383.383 226.132 384.089 225.425 384.089 224.554C384.089 223.683 383.383 222.977 382.512 222.977C381.641 222.977 380.934 223.683 380.934 224.554C380.934 225.425 381.641 226.132 382.512 226.132Z" fill="#EEEEEE"/>
<path d="M386.182 216.668C380.377 216.668 375.677 221.379 375.677 227.183C375.677 232.988 380.377 237.699 386.182 237.699C391.997 237.699 396.708 232.988 396.708 227.183C396.708 221.379 391.997 216.668 386.182 216.668ZM386.192 235.596C381.544 235.596 377.78 231.831 377.78 227.183C377.78 222.535 381.544 218.771 386.192 218.771C390.84 218.771 394.604 222.535 394.604 227.183C394.604 231.831 390.84 235.596 386.192 235.596Z" fill="#EEEEEE"/>
<path d="M475.101 213.182H403.264V219.511H475.101V213.182Z" fill="#7DA2FF"/>
<path d="M475.101 223.698H403.264V230.027H475.101V223.698Z" fill="#7DA2FF"/>
<path d="M475.101 233.862H403.264V240.191H475.101V233.862Z" fill="#7DA2FF"/>
<path d="M592.678 76.785L592.581 73.0773L588.229 73.2052L591.936 70.9358L589.986 67.7396L586.263 69.9929L588.342 66.2054L585.119 64.4315L583.233 67.8834V64H579.493V68.3149L577.318 64.5753L574.094 66.4451L576.27 70.1687L572.498 68.0113L570.629 71.2075L574.706 73.5408L570 73.6686L570.097 77.3762L574.449 77.2644L570.741 79.5177L572.708 82.714L576.415 80.4606L574.336 84.2482L577.559 86.0221L579.445 82.5701V86.4855H583.184V82.1706L585.36 85.9102L588.584 84.0564L586.408 80.3008L590.18 82.4583L592.049 79.262L587.971 76.9288L592.678 76.785ZM581.299 80.8761C580.173 80.8761 579.073 80.5453 578.138 79.9254C577.202 79.3055 576.473 78.4245 576.042 77.3936C575.611 76.3628 575.499 75.2285 575.718 74.1342C575.938 73.0399 576.48 72.0347 577.275 71.2457C578.071 70.4568 579.085 69.9195 580.189 69.7018C581.292 69.4841 582.436 69.5959 583.476 70.0228C584.516 70.4498 585.404 71.1729 586.029 72.1006C586.655 73.0283 586.988 74.119 586.988 75.2348C586.99 75.9762 586.845 76.7107 586.559 77.3961C586.274 78.0815 585.855 78.7042 585.326 79.2285C584.798 79.7528 584.17 80.1682 583.478 80.451C582.787 80.7338 582.046 80.8782 581.299 80.8761Z" fill="#EEEEEE"/>
<path d="M584.683 75.1069C584.683 75.7707 584.485 76.4195 584.113 76.9714C583.741 77.5233 583.212 77.9535 582.594 78.2075C581.975 78.4615 581.295 78.528 580.638 78.3985C579.982 78.269 579.379 77.9494 578.905 77.48C578.432 77.0106 578.109 76.4126 577.979 75.7616C577.848 75.1106 577.915 74.4358 578.171 73.8226C578.428 73.2094 578.862 72.6852 579.418 72.3164C579.975 71.9477 580.629 71.7509 581.299 71.7509C582.196 71.7509 583.057 72.1044 583.692 72.7338C584.327 73.3632 584.683 74.2168 584.683 75.1069Z" fill="#EEEEEE"/>
<path d="M379.755 115H237V178.925H379.755V115Z" fill="#E9EFFF"/>
<path d="M292.435 151.472C294.506 138.768 285.798 126.805 272.986 124.752C260.173 122.699 248.108 131.334 246.038 144.037C243.967 156.741 252.675 168.704 265.487 170.757C278.3 172.81 290.365 164.176 292.435 151.472Z" fill="#7DA2FF"/>
<path d="M276.586 165.268C286.336 161.23 290.938 150.12 286.865 140.453C282.793 130.786 271.588 126.222 261.838 130.26C252.088 134.298 247.486 145.408 251.558 155.075C255.631 164.743 266.836 169.306 276.586 165.268Z" fill="#557EFF"/>
<path d="M373.502 122.367H299.279V130.182H373.502V122.367Z" fill="#557EFF"/>
<path d="M373.502 136.095H299.279V143.91H373.502V136.095Z" fill="#557EFF"/>
<path d="M373.502 149.823H299.279V157.638H373.502V149.823Z" fill="#557EFF"/>
<path d="M373.502 163.551H299.279V171.366H373.502V163.551Z" fill="#557EFF"/>
<path d="M277.462 145.204V143.101C277.462 141.944 276.515 140.998 275.359 140.998H272.204C272.204 139.252 270.795 137.843 269.049 137.843C267.304 137.843 265.895 139.252 265.895 140.998H262.74C261.583 140.998 260.637 141.944 260.637 143.101V145.204C258.891 145.204 257.482 146.613 257.482 148.359C257.482 150.104 258.891 151.513 260.637 151.513V155.72C260.637 156.876 261.583 157.823 262.74 157.823H275.359C276.515 157.823 277.462 156.876 277.462 155.72V151.513C279.207 151.513 280.616 150.104 280.616 148.359C280.616 146.613 279.207 145.204 277.462 145.204ZM275.359 155.72H262.74V143.101H275.359V155.72ZM265.895 149.41C265.022 149.41 264.317 148.706 264.317 147.833C264.317 146.96 265.022 146.256 265.895 146.256C266.767 146.256 267.472 146.96 267.472 147.833C267.472 148.706 266.767 149.41 265.895 149.41ZM273.781 147.833C273.781 148.706 273.077 149.41 272.204 149.41C271.331 149.41 270.627 148.706 270.627 147.833C270.627 146.96 271.331 146.256 272.204 146.256C273.077 146.256 273.781 146.96 273.781 147.833ZM264.843 151.513H273.255V153.617H264.843V151.513Z" fill="#EEEEEE"/>
<path d="M246 195C249.866 195 253 191.866 253 188C253 184.134 249.866 181 246 181C242.134 181 239 184.134 239 188C239 191.866 242.134 195 246 195Z" fill="#EEEEEE"/>
<path d="M248.625 187.25C249.246 187.25 249.75 186.746 249.75 186.125C249.75 185.504 249.246 185 248.625 185C248.004 185 247.5 185.504 247.5 186.125C247.5 186.746 248.004 187.25 248.625 187.25Z" fill="#E5B445"/>
<path d="M243.375 187.25C243.996 187.25 244.5 186.746 244.5 186.125C244.5 185.504 243.996 185 243.375 185C242.754 185 242.25 185.504 242.25 186.125C242.25 186.746 242.754 187.25 243.375 187.25Z" fill="#E5B445"/>
<path d="M246 192.5C247.71 192.5 249.165 191.255 249.75 189.5H242.25C242.835 191.255 244.29 192.5 246 192.5Z" fill="#E5B445"/>
<path d="M245.992 180.5C241.852 180.5 238.5 183.86 238.5 188C238.5 192.14 241.852 195.5 245.992 195.5C250.14 195.5 253.5 192.14 253.5 188C253.5 183.86 250.14 180.5 245.992 180.5ZM246 194C242.685 194 240 191.315 240 188C240 184.685 242.685 182 246 182C249.315 182 252 184.685 252 188C252 191.315 249.315 194 246 194Z" fill="#E5B445"/>
<g clip-path="url(#clip1_53_28226)">
<path d="M129.366 287.477L137.175 289.607L129.597 289.547L129.366 287.477ZM137.764 294.734L130.655 298.606L130.414 296.537L137.764 294.734ZM127.049 284.885L127.801 291.41L142.918 291.534L128.237 295.138L129.008 301.66L148.877 290.838L127.049 284.885Z" fill="#7DA2FF"/>
</g>
</g>
<path d="M30.9092 388.951C30.9092 388.951 12.5027 384.397 0.978415 352.434C-4.50008 320 14.2595 305.881 26.2673 279.848C38.275 253.814 54.3123 250.842 63.1609 259.072C72.0096 267.303 74.9408 304.121 82.5 312C90.0593 319.879 99.0392 347.576 93.0273 365.427C91.2786 370.651 88.4383 375.451 84.6917 379.513C80.9451 383.575 76.3765 386.807 71.2843 388.999L30.9092 388.951Z" fill="#D2D9FF"/>
<path d="M46 389C42 360.128 42 330.872 46 302C44.0037 330.968 44.0037 360.032 46 389Z" fill="#6682FE"/>
<path d="M20.2554 325.027C28.9489 333.542 36.8517 342.817 43.868 352.738C35.1657 344.23 27.2623 334.955 20.2554 325.027Z" fill="#6682FE"/>
<path d="M45.0768 377.285C53.8077 368.29 63.3219 360.076 73.5086 352.738C64.7813 361.737 55.2668 369.952 45.0768 377.285Z" fill="#6682FE"/>
<path d="M78.763 388.951H25.1229V399.962H78.763V388.951Z" fill="#F9C94E"/>
<path d="M35 400L37.9445 432H67.5524L71 400H35Z" fill="#E5B445"/>
<defs>
<clipPath id="clip0_53_28226">
<rect width="510" height="469" fill="white" transform="translate(95)"/>
</clipPath>
<clipPath id="clip1_53_28226">
<rect width="24" height="22.518" fill="white" transform="translate(125.223 282.265) rotate(-6.66035)"/>
</clipPath>
</defs>
</svg>
